<svg width="82" height="27" viewBox="0 0 82 27" fill="none" xmlns="http://www.w3.org/2000/svg">
<path d="M70.7432 26.0886H64.556L67.9687 18.8471L60.1445 5.11328H66.5814L70.7709 12.7432H71.0206L74.5165 5.11328H80.7591L70.7432 26.0886Z" fill="#0E0E0E"/>
<path d="M58.6761 20.8173H52.7109V0.84082H58.6761V20.8173Z" fill="#0E0E0E"/>
<path d="M31.1484 20.8177V5.11402H37.1136V7.55559H37.3633C37.8258 6.83421 38.6026 6.18683 39.6939 5.61343C40.8037 5.02153 42.0893 4.72559 43.5505 4.72559C45.5296 4.72559 47.0649 5.25274 48.1562 6.30706C49.2475 7.36137 49.7931 8.83186 49.7931 10.7185V20.8177H43.8279V12.078C43.8279 11.0792 43.5505 10.3116 42.9956 9.7752C42.4592 9.23879 41.7008 8.97059 40.7205 8.97059C39.9251 8.97059 39.1945 9.1833 38.5286 9.60872C37.8812 10.0341 37.4096 10.5151 37.1136 11.0515V20.8177H31.1484Z" fill="#0E0E0E"/>
<path d="M14.5471 21.3169C11.5507 21.3169 9.01661 20.873 6.94497 19.9851C4.89183 19.0973 3.34736 17.8857 2.31154 16.3505C1.27572 14.7968 0.757812 13.0488 0.757812 11.1067C0.757812 9.16453 1.27572 7.42583 2.31154 5.8906C3.34736 4.33688 4.89183 3.11609 6.94497 2.22825C9.01661 1.34041 11.5507 0.896484 14.5471 0.896484C17.5251 0.896484 20.0499 1.34041 22.1215 2.22825C24.1932 3.11609 25.7377 4.33688 26.755 5.8906C27.7908 7.42583 28.3087 9.16453 28.3087 11.1067C28.3087 13.0488 27.7908 14.7968 26.755 16.3505C25.7377 17.8857 24.1932 19.0973 22.1215 19.9851C20.0499 20.873 17.5251 21.3169 14.5471 21.3169ZM14.5471 16.7389C16.1748 16.7389 17.5529 16.4892 18.6812 15.9898C19.828 15.4904 20.6788 14.8153 21.2337 13.9644C21.8071 13.1136 22.0938 12.161 22.0938 11.1067C22.0938 10.0524 21.8071 9.09979 21.2337 8.24894C20.6788 7.39809 19.828 6.72296 18.6812 6.22355C17.5529 5.72413 16.1748 5.47443 14.5471 5.47443C12.9194 5.47443 11.5322 5.72413 10.3854 6.22355C9.25706 6.72296 8.40621 7.39809 7.83281 8.24894C7.25942 9.09979 6.97272 10.0524 6.97272 11.1067C6.97272 12.161 7.25942 13.1136 7.83281 13.9644C8.40621 14.8153 9.25706 15.4904 10.3854 15.9898C11.5322 16.4892 12.9194 16.7389 14.5471 16.7389Z" fill="#0E0E0E"/>
</svg>
