<svg width="75" height="62" viewBox="0 0 75 62" fill="none" xmlns="http://www.w3.org/2000/svg">
<rect width="74.9079" height="61.989" rx="30.9945" fill="#00FFA9"/>
<path d="M44.6395 34.2913C44.7714 33.2037 44.8702 32.116 44.8702 30.9954C44.8702 29.8747 44.7714 28.7871 44.6395 27.6994H50.2097C50.4734 28.7541 50.6381 29.8583 50.6381 30.9954C50.6381 32.1325 50.4734 33.2366 50.2097 34.2913M41.7226 43.4541C42.7114 41.6248 43.4695 39.6472 43.9968 37.5873H48.8583C47.2617 40.3365 44.7287 42.4191 41.7226 43.4541ZM41.3106 34.2913H33.5981C33.4333 33.2037 33.3344 32.116 33.3344 30.9954C33.3344 29.8747 33.4333 28.7706 33.5981 27.6994H41.3106C41.4589 28.7706 41.5743 29.8747 41.5743 30.9954C41.5743 32.116 41.4589 33.2037 41.3106 34.2913ZM37.4544 44.1132C36.0865 42.1357 34.9824 39.9439 34.3067 37.5873H40.602C39.9263 39.9439 38.8222 42.1357 37.4544 44.1132ZM30.8625 24.4035H26.0504C27.6305 21.6468 30.1617 19.5609 33.1696 18.5367C32.1808 20.3659 31.4392 22.3435 30.8625 24.4035ZM26.0504 37.5873H30.8625C31.4392 39.6472 32.1808 41.6248 33.1696 43.4541C30.168 42.4186 27.6404 40.3356 26.0504 37.5873ZM24.699 34.2913C24.4354 33.2366 24.2706 32.1325 24.2706 30.9954C24.2706 29.8583 24.4354 28.7541 24.699 27.6994H30.2692C30.1373 28.7871 30.0385 29.8747 30.0385 30.9954C30.0385 32.116 30.1373 33.2037 30.2692 34.2913M37.4544 17.861C38.8222 19.8386 39.9263 22.0469 40.602 24.4035H34.3067C34.9824 22.0469 36.0865 19.8386 37.4544 17.861ZM48.8583 24.4035H43.9968C43.481 22.3624 42.7173 20.3921 41.7226 18.5367C44.7549 19.5749 47.2763 21.6678 48.8583 24.4035ZM37.4544 14.5156C28.3411 14.5156 20.9746 21.9315 20.9746 30.9954C20.9746 35.3661 22.7109 39.5578 25.8014 42.6483C27.3317 44.1786 29.1484 45.3925 31.1478 46.2207C33.1472 47.0489 35.2902 47.4751 37.4544 47.4751C41.8251 47.4751 46.0167 45.7389 49.1073 42.6483C52.1978 39.5578 53.9341 35.3661 53.9341 30.9954C53.9341 28.8312 53.5078 26.6883 52.6797 24.6888C51.8515 22.6894 50.6376 20.8727 49.1073 19.3424C47.577 17.8121 45.7603 16.5983 43.7609 15.7701C41.7615 14.9419 39.6185 14.5156 37.4544 14.5156Z" fill="#04251A"/>
</svg>
