<svg width="52" height="17" viewBox="0 0 52 17" fill="none" xmlns="http://www.w3.org/2000/svg">
<path d="M44.5404 16.4264H40.6448L42.7935 11.867L37.8672 3.21973H41.92L44.5579 8.02374H44.7151L46.9162 3.21973H50.8468L44.5404 16.4264Z" fill="#0E0E0E"/>
<path d="M36.9434 13.1071H33.1875V0.529297H36.9434V13.1071Z" fill="#0E0E0E"/>
<path d="M19.6094 13.1077V3.22015H23.3652V4.75744H23.5225C23.8136 4.30324 24.3028 3.89563 24.9899 3.5346C25.6886 3.16192 26.498 2.97559 27.4181 2.97559C28.6642 2.97559 29.6308 3.3075 30.318 3.97133C31.0051 4.63515 31.3486 5.56102 31.3486 6.74892V13.1077H27.5928V7.60491C27.5928 6.97602 27.4181 6.49271 27.0687 6.15497C26.731 5.81723 26.2535 5.64837 25.6362 5.64837C25.1354 5.64837 24.6754 5.78229 24.2562 6.05015C23.8486 6.31802 23.5516 6.62081 23.3652 6.95855V13.1077H19.6094Z" fill="#0E0E0E"/>
<path d="M9.15873 13.4217C7.27206 13.4217 5.67654 13.1422 4.37218 12.5832C3.07946 12.0242 2.10702 11.2614 1.45483 10.2948C0.802653 9.31649 0.476562 8.21594 0.476562 6.9931C0.476562 5.77026 0.802653 4.67552 1.45483 3.7089C2.10702 2.73063 3.07946 1.96198 4.37218 1.40297C5.67654 0.84396 7.27206 0.564453 9.15873 0.564453C11.0337 0.564453 12.6234 0.84396 13.9278 1.40297C15.2322 1.96198 16.2046 2.73063 16.8451 3.7089C17.4973 4.67552 17.8234 5.77026 17.8234 6.9931C17.8234 8.21594 17.4973 9.31649 16.8451 10.2948C16.2046 11.2614 15.2322 12.0242 13.9278 12.5832C12.6234 13.1422 11.0337 13.4217 9.15873 13.4217ZM9.15873 10.5393C10.1836 10.5393 11.0512 10.3821 11.7616 10.0677C12.4837 9.75322 13.0194 9.32814 13.3688 8.79242C13.7298 8.2567 13.9103 7.65693 13.9103 6.9931C13.9103 6.32927 13.7298 5.7295 13.3688 5.19378C13.0194 4.65806 12.4837 4.23297 11.7616 3.91853C11.0512 3.60408 10.1836 3.44686 9.15873 3.44686C8.13387 3.44686 7.26041 3.60408 6.53835 3.91853C5.82794 4.23297 5.29222 4.65806 4.93119 5.19378C4.57016 5.7295 4.38965 6.32927 4.38965 6.9931C4.38965 7.65693 4.57016 8.2567 4.93119 8.79242C5.29222 9.32814 5.82794 9.75322 6.53835 10.0677C7.26041 10.3821 8.13387 10.5393 9.15873 10.5393Z" fill="#0E0E0E"/>
</svg>
