<svg width="57" height="45" viewBox="0 0 57 45" fill="none" xmlns="http://www.w3.org/2000/svg">
<path d="M0 11.25C0 5.0368 5.0368 0 11.25 0H45C51.2132 0 56.25 5.0368 56.25 11.25V33.75C56.25 39.9632 51.2132 45 45 45H11.25C5.0368 45 0 39.9632 0 33.75V11.25Z" fill="#00FFA9"/>
<path d="M24.0006 9.61393L16.7486 30.3037C15.9734 32.5152 17.6147 34.8298 19.9582 34.8298H29.5837C31.1108 34.8298 32.4507 33.8119 32.8602 32.3407L38.6192 11.651C39.2226 9.48342 37.5927 7.33789 35.3427 7.33789H27.2102C25.7656 7.33789 24.4785 8.25058 24.0006 9.61393Z" stroke="#04251A" stroke-width="0.566843"/>
<path fill-rule="evenodd" clip-rule="evenodd" d="M23.9025 9.8036C24.4202 8.32663 25.8145 7.33789 27.3796 7.33789H35.5121C37.9495 7.33789 39.7152 9.66221 39.0616 12.0104L33.3026 32.7001C32.859 34.2939 31.4075 35.3966 29.7531 35.3966H20.1275C17.5888 35.3966 15.8107 32.8892 16.6505 30.4934L23.9025 9.8036ZM23.9493 10.7389C24.467 9.26198 25.5018 7.62131 27.0669 7.62131H36.1364C38.5738 7.62131 39.7152 11.9296 39.0616 14.2778L33.8694 34.9675C33.4258 36.5613 31.9742 37.664 30.3199 37.664H20.1275C17.5887 37.664 15.6562 33.637 16.4959 31.2412L23.9493 10.7389Z" fill="#04251A"/>
<path d="M21.9648 33.4141H27.0664" stroke="#04251A" stroke-width="0.566843" stroke-linecap="round"/>
<path d="M33.0816 8.47266H28.8334C28.6187 8.47266 28.4224 8.59396 28.3264 8.786L28.043 9.35284C27.8545 9.72974 28.1286 10.1732 28.55 10.1732H32.8927C33.1367 10.1732 33.3533 10.0171 33.4304 9.78559L33.6194 9.21875C33.7417 8.8517 33.4685 8.47266 33.0816 8.47266Z" fill="#04251A"/>
<path d="M31.6016 30.5789L36.9866 11.873" stroke="#04251A" stroke-width="0.566843" stroke-linecap="round"/>
<path d="M24.782 11.9676C24.8342 11.82 24.7569 11.6581 24.6093 11.6059C24.4618 11.5536 24.2998 11.6309 24.2476 11.7785L24.5148 11.873L24.782 11.9676ZM17.9961 30.2954L18.2633 30.39L24.782 11.9676L24.5148 11.873L24.2476 11.7785L17.7289 30.2009L17.9961 30.2954Z" fill="#04251A"/>
<path d="M29.4724 30.5782H20.2637C20.6416 30.1058 22.2476 29.1611 22.2476 29.1611L24.2316 25.1932L24.7087 26.7836C24.8509 27.2575 25.4894 27.3346 25.7402 26.9082L27.916 23.2092V25.2136C27.916 25.8188 28.7374 26.0028 28.9956 25.4554L35.0016 12.7227L30.0175 30.1671C29.9479 30.4104 29.7255 30.5782 29.4724 30.5782Z" fill="#04251A"/>
<path d="M23.0977 22.0753H29.3329M24.7982 18.1074H31.0335M26.4987 13.0059H33.5842" stroke="#04251A" stroke-width="0.566843" stroke-linecap="round"/>
</svg>
