<svg width="26" height="26" viewBox="0 0 26 26" fill="none" xmlns="http://www.w3.org/2000/svg">
<g clip-path="url(#clip0_22925_1164)">
<path d="M16.1846 19.9199H13.4854L10.9756 10.5312L10.6172 9.19434L10.2617 10.5322L7.75195 19.9707H5.05371L0.505859 5.78223H3.44629L6.05273 15.7422L6.76855 15.7373L9.23438 5.78223H12.0537L14.5186 15.7373L15.2334 15.7422L17.8408 5.77832L20.7295 5.74023L16.1846 19.9199Z" fill="#0E0E0E" stroke="#0E0E0E" stroke-width="0.738462"/>
<path d="M23.3588 15.5059C24.7954 15.5059 25.8476 16.5602 25.8476 17.9957C25.8476 19.428 24.7954 20.4812 23.3588 20.4812C21.9232 20.4812 20.8711 19.428 20.8711 17.9957C20.8722 16.5602 21.9717 15.5059 23.3588 15.5059Z" fill="#0E0E0E"/>
<path d="M23.3584 15.875C24.5908 15.875 25.4785 16.7642 25.4785 17.9961C25.4783 19.2241 24.5912 20.1123 23.3584 20.1123C22.127 20.1121 21.2404 19.224 21.2402 17.9961C21.2412 16.7684 22.1714 15.8752 23.3584 15.875Z" stroke="#0E0E0E" stroke-opacity="0.8" stroke-width="0.738462"/>
</g>
<defs>
<clipPath id="clip0_22925_1164">
<rect width="25.8462" height="25.8462" fill="white"/>
</clipPath>
</defs>
</svg>
