<svg width="30" height="30" viewBox="0 0 30 30" fill="none" xmlns="http://www.w3.org/2000/svg">
<path fill-rule="evenodd" clip-rule="evenodd" d="M11.7144 1.72677C11.9204 1.59628 12.0572 1.3663 12.0572 1.10436C12.0572 0.69777 11.7276 0.368164 11.321 0.368164C10.9144 0.368164 10.5848 0.69777 10.5848 1.10436C10.5848 1.50723 10.9084 1.83451 11.3099 1.84047C11.122 1.92397 10.9618 2.0467 10.8293 2.20865C10.4423 3.01068 10.6417 3.60884 11.4275 4.00313C11.1232 4.25881 10.9237 4.58089 10.8293 4.96939C10.6294 5.78843 10.8134 6.49394 11.3815 7.08596L11.4735 9.01847C11.5877 10.4047 12.0632 11.6471 12.8999 12.7455C12.3626 12.8874 11.8411 13.0714 11.3355 13.2976C9.26414 14.556 7.7304 16.2891 6.73423 18.497C5.62432 18.8146 5.04149 19.5508 4.98576 20.7056C3.80948 20.3771 3.25733 20.8372 3.32932 22.086C3.53978 22.586 3.92322 22.8621 4.47963 22.9142C5.01991 22.8229 5.34199 22.5162 5.44589 21.9939C5.7295 22.1068 6.00557 22.2449 6.27411 22.408L6.96429 22.5461C8.50018 22.3274 9.17503 21.4378 8.98883 19.8774C9.28231 19.3951 9.55837 18.9042 9.81705 18.405C10.6023 17.3131 11.5686 16.4082 12.7158 15.6902C13.6709 15.2854 14.3303 15.5769 14.6944 16.5645C15.0689 18.5586 14.8696 20.4911 14.0962 22.362C13.7875 22.594 13.5267 22.8701 13.314 23.1903C12.8626 24.7641 13.43 25.761 15.0164 26.181C14.649 27.2859 15.0478 27.8994 16.2128 28.0215C16.2013 28.0347 16.1905 28.0473 16.1805 28.0591C16.022 28.1942 15.9215 28.3952 15.9215 28.6197C15.9215 29.0263 16.2511 29.3559 16.6577 29.3559C17.0643 29.3559 17.3939 29.0263 17.3939 28.6197C17.3939 28.3092 17.2017 28.0436 16.9298 27.9354C16.9359 27.9306 16.939 27.9276 16.9385 27.9255C16.9377 27.9223 16.9286 27.921 16.9086 27.9183L16.9086 27.9183C16.8953 27.9165 16.8773 27.914 16.8537 27.9099C16.825 27.902 16.7956 27.8957 16.7656 27.8913C16.7166 27.8795 16.6556 27.8625 16.5809 27.8375C16.7689 27.6708 16.9069 27.4714 16.995 27.2393C17.1486 26.5676 16.9492 26.046 16.3968 25.6749C16.5525 25.5038 16.6905 25.3198 16.8109 25.1228C17.0007 24.3975 16.9853 23.6766 16.7649 22.9602C17.0701 21.9211 17.3001 20.8629 17.4551 19.7853C17.7198 17.9537 17.459 16.2052 16.6729 14.5399C18.6139 14.1679 20.2397 13.2476 21.5502 11.7792C22.9753 11.7124 23.7729 10.9762 23.9428 9.57062C24.108 9.64103 24.2767 9.70238 24.449 9.75467C25.3722 9.53379 25.7397 8.97972 25.5513 8.09246C25.6819 8.21047 25.8549 8.28233 26.0448 8.28233C26.4514 8.28233 26.781 7.95272 26.781 7.54613C26.781 7.13954 26.4514 6.80994 26.0448 6.80994C25.6382 6.80994 25.3086 7.13954 25.3086 7.54613C25.3086 7.62621 25.3214 7.70331 25.345 7.77548C25.222 7.67634 25.0921 7.58453 24.9551 7.50007C24.1491 7.23637 23.6124 7.49711 23.3447 8.28227C23.1663 8.04247 22.9363 7.87376 22.6545 7.77614C20.8888 7.48635 19.9839 8.23787 19.9398 10.0307C19.2175 10.7985 18.3739 11.3967 17.4091 11.8252C16.6426 12.1554 15.9064 12.0941 15.2005 11.6412C14.3396 10.8423 13.8641 9.8454 13.7741 8.65037C13.5919 7.88189 13.7759 7.23771 14.3263 6.71786C14.9986 5.01702 14.4618 3.9434 12.7158 3.497C13.0479 2.47348 12.7141 1.8834 11.7144 1.72677ZM17.2936 6.92778C16.7406 6.75664 16.1228 6.78193 15.6242 7.07591C15.1308 7.36682 14.7726 7.81494 14.5499 8.42026C14.3507 9.20377 14.4465 9.89044 14.8372 10.4802C15.1126 10.8959 15.5515 11.1801 16.0306 11.3182C17.019 11.6031 17.8171 11.3498 18.4249 10.5583C18.781 10.0945 18.9481 9.50179 18.8978 8.91925C18.8095 7.89527 18.2747 7.23145 17.2936 6.92778ZM2.66979 23.1902C3.07638 23.1902 3.40599 22.8606 3.40599 22.454C3.40599 22.0474 3.07638 21.7178 2.66979 21.7178C2.2632 21.7178 1.93359 22.0474 1.93359 22.454C1.93359 22.8606 2.2632 23.1902 2.66979 23.1902Z" fill="#191919"/>
</svg>
