<svg width="37" height="11" viewBox="0 0 37 11" fill="none" xmlns="http://www.w3.org/2000/svg">
<path d="M34.5578 4.72417H32.3479V2.4434C32.3479 2.13925 32.1752 1.87555 31.9325 1.73395C31.8212 1.67327 31.689 1.63281 31.5474 1.63281H24.1372C23.9443 1.63281 23.7623 1.70361 23.62 1.81559C23.5188 1.88639 23.4271 1.97814 23.3563 2.0894L20.8422 6.75208L18.5722 2.30108C18.5318 2.12841 18.4306 1.96658 18.2883 1.85533C18.0549 1.6422 17.7002 1.58152 17.3961 1.72384C17.1425 1.84521 16.9807 2.08868 16.9503 2.35237L14.5785 6.75208L12.2168 2.10963C12.1359 1.92685 11.9835 1.79536 11.8217 1.72456C11.7104 1.67399 11.5883 1.63353 11.4568 1.63353H5.46556C5.32396 1.63353 5.19175 1.66388 5.0805 1.73468C4.82692 1.86616 4.66509 2.13997 4.66509 2.44412V4.72489H2.445C1.99925 4.72489 1.64453 5.07961 1.64453 5.52537C1.64453 5.97112 1.99925 6.32584 2.445 6.32584H4.65497V8.53581C4.65497 8.98156 5.0097 9.33628 5.45545 9.33628C5.9012 9.33628 6.25592 8.98156 6.25592 8.53581V6.32584H10.0777C10.5234 6.32584 10.8781 5.97112 10.8781 5.52537C10.8781 5.07961 10.5234 4.72489 10.0777 4.72489H6.25592V3.24459H10.98L13.8084 8.78939C13.8286 8.83996 13.8489 8.89053 13.8792 8.93099C14.0923 9.28571 14.5381 9.43815 14.9231 9.24525C15.1565 9.13399 15.3183 8.91076 15.3588 8.67741L17.7508 4.24735L20.0619 8.78866C20.0821 8.83923 20.1024 8.88981 20.1327 8.93026C20.3458 9.28499 20.7916 9.43742 21.1766 9.24453C21.41 9.13327 21.5718 8.91004 21.6123 8.67668L24.5418 3.23304H30.7151V4.71333H25.3632C24.9276 4.71333 24.583 5.05794 24.5628 5.48346V8.48379C24.5628 8.92954 24.9175 9.28426 25.3632 9.28426H31.2729C31.3538 9.31461 31.4455 9.28426 31.5366 9.28426C31.9823 9.28426 32.337 8.92954 32.337 8.48379V6.31428H34.547C34.9928 6.31428 35.3475 5.95956 35.3475 5.51381C35.359 5.08901 34.9942 4.72417 34.5578 4.72417ZM30.7368 7.69415H26.155V6.33595H30.7368V7.69415Z" fill="white"/>
<path d="M31.5363 1.64213C31.6779 1.64213 31.8101 1.67247 31.9214 1.74327C32.175 1.87475 32.3368 2.14856 32.3368 2.45271V4.73348H34.5468C34.9925 4.73348 35.3472 5.0882 35.3472 5.53396C35.3472 5.97971 34.9925 6.33443 34.5468 6.33443H32.3368V8.50394C32.3368 8.94969 31.9821 9.30441 31.5363 9.30441C31.4453 9.30441 25.3832 9.30441 25.3832 9.30441C24.9375 9.30441 24.5828 8.94969 24.5828 8.50394V5.4935C24.603 5.06798 24.9577 4.72337 25.3832 4.72337H30.7351V3.24307H24.5618L21.6323 8.68672C21.5817 8.93019 21.4293 9.14258 21.1966 9.25456C21.0854 9.30514 20.9633 9.33548 20.852 9.33548C20.5782 9.33548 20.3044 9.19388 20.1628 8.9403C20.1325 8.89984 20.1122 8.84927 20.092 8.7987L17.7809 4.25739L15.4394 8.69756C15.3383 8.93091 15.1859 9.14331 14.9525 9.2654C14.8413 9.31597 14.7192 9.34631 14.6079 9.34631C14.3341 9.34631 14.0603 9.20471 13.9187 8.95113C13.8883 8.91068 13.8681 8.86011 13.8479 8.80954L11.0195 3.26474H6.29541V4.74504H10.1172C10.5629 4.74504 10.9176 5.09976 10.9176 5.54551C10.9176 5.99127 10.5629 6.34599 10.1172 6.34599H6.29541V8.55596C6.29541 9.00171 5.94069 9.35643 5.49494 9.35643C5.04919 9.35643 4.69447 9.00171 4.69447 8.55596V6.34599H2.44404C1.99829 6.34599 1.64357 5.99127 1.64357 5.54551C1.64357 5.09976 1.99829 4.74504 2.44404 4.74504H4.65401V2.46427C4.65401 2.16012 4.82668 1.89643 5.06942 1.75483C5.18068 1.69414 5.31289 1.65369 5.45449 1.65369H11.445C11.5765 1.65369 11.6986 1.68403 11.8099 1.74471C11.9825 1.81551 12.1241 1.94772 12.205 2.12978L14.5768 6.78235L16.9486 2.34218C17.07 2.09871 17.1314 1.8762 17.3944 1.75411C17.5056 1.70353 17.6277 1.67319 17.739 1.67319C17.942 1.67319 18.1342 1.74399 18.2765 1.88631C18.4181 1.99757 18.4896 2.07921 18.5908 2.27138L20.8311 6.78235L23.3452 2.11966C23.4059 2.00841 23.4969 1.91666 23.6089 1.84586C23.7505 1.7346 23.9232 1.66308 24.1262 1.66308H31.5363M26.1541 7.69408H30.7358V6.33587H26.1541V7.69408ZM31.5363 0H24.1262C23.5887 0 23.062 0.18278 22.6358 0.507159C22.3417 0.710167 22.0983 0.983253 21.9263 1.2874L21.9162 1.30763L21.9061 1.32786L20.8824 3.23368C20.8824 3.23368 19.6961 0.902339 19.3414 0.618417C18.8956 0.233352 18.3278 0.0202296 17.7397 0.0202296C17.3749 0.0202296 17.01 0.101143 16.6756 0.263694C16.0369 0.567845 15.6822 1.13569 15.3882 1.79456L14.618 3.23368L13.6752 1.38855C13.4318 0.891501 13.0164 0.486208 12.5092 0.25358C12.1747 0.0910292 11.8099 0.0101153 11.445 0.0101153H5.45449C5.04919 0.0101153 4.6439 0.111258 4.28845 0.304151C3.4981 0.729673 3.01116 1.56121 3.01116 2.45344V3.09208H2.44332C1.09523 3.09208 0 4.18659 0 5.5354C0 6.88421 1.09451 7.97872 2.44332 7.97872H3.01116V8.54657C3.01116 9.89465 4.10567 10.9899 5.45449 10.9899C6.8033 10.9899 7.89781 9.89538 7.89781 8.54657V7.97872H10.0673C10.5333 7.97872 10.9798 7.84724 11.3547 7.61388L12.3177 9.49948C12.3683 9.61073 12.4189 9.7126 12.4803 9.81374C12.926 10.5434 13.7171 10.9899 14.5682 10.9899C14.933 10.9899 15.2978 10.909 15.6323 10.7464C16.2305 10.4625 16.7471 9.97629 17.0108 9.35787L17.7101 7.80678L18.5821 9.50959C18.6327 9.62085 18.6832 9.72271 18.7439 9.82385C19.1897 10.5535 19.9808 11 20.8318 11C21.1966 11 21.5615 10.9191 21.896 10.7565C22.4537 10.4827 22.8893 10.0066 23.1126 9.43879C23.4774 10.331 24.3595 10.9595 25.3832 10.9595H31.5363C32.8844 10.9595 33.9796 9.90549 33.9796 8.5574V7.98956H34.5475C35.8956 7.98956 36.9908 6.89505 36.9908 5.54624C36.9908 4.19815 35.8963 3.10292 34.5475 3.10292H33.9796V2.46427C33.9796 1.56193 33.4934 0.741232 32.7023 0.314988C32.3476 0.101143 31.9416 0 31.5363 0Z" fill="#0E0E0E"/>
</svg>
