<svg width="21" height="26" viewBox="0 0 21 26" fill="none" xmlns="http://www.w3.org/2000/svg">
<path fill-rule="evenodd" clip-rule="evenodd" d="M7.12499 0L7.36423 0.0292217C7.49881 0.0438325 8.02963 0.0803597 8.5455 0.0949705C9.39781 0.131498 9.53238 0.160719 10.5641 0.613656L10.4744 1.19809L10.9678 1.43917C11.4538 1.66564 11.4613 1.68025 11.4613 1.96516C11.4613 2.12588 11.4164 2.64456 11.3566 3.11942C11.2968 3.58696 11.1921 4.449 11.1249 5.03344C11.0576 5.61787 10.9978 6.15847 10.9903 6.24614C10.9753 6.38494 11.0202 6.40686 11.551 6.45069C11.9996 6.48722 12.2388 6.54566 12.5977 6.72829C13.0612 6.96937 13.0687 6.96937 13.0239 7.55381L14.1079 7.60495C15.1322 7.66339 15.2294 7.678 16.1864 8.13824L16.134 8.74459L16.6948 8.77381C17.1433 8.80303 17.3527 8.86148 18.2498 9.30711L18.1751 9.89154L18.6685 10.1253C19.162 10.3664 19.162 10.3664 19.162 10.6732C19.162 10.9874 19.162 10.9874 20.1339 11.4622L20.089 11.9517C20.0666 12.2293 20.0068 12.8429 19.947 13.3251C19.8872 13.8072 19.79 14.6255 19.7302 15.1514C19.6704 15.6774 19.5433 16.7367 19.2741 18.9137H18.7283C18.347 18.9137 18.19 18.943 18.19 19.0014C18.19 19.0525 18.1227 19.637 18.0405 20.3018C17.9583 20.9666 17.8835 21.6094 17.8536 21.9455L16.8069 21.8944L16.7097 22.508C16.6649 22.8368 16.5677 23.56 16.5078 24.1006C16.4406 24.6412 16.3658 25.2914 16.2836 26H15.9621C15.7901 26 15.0873 25.9708 14.392 25.9269C13.7042 25.8904 12.1641 25.8028 10.9753 25.7443C9.78658 25.6859 8.20159 25.5982 7.46143 25.5617C6.72127 25.5178 5.90634 25.474 5.64467 25.4521C5.33066 25.4302 5.0316 25.3425 4.7176 25.1891C4.45592 25.0649 4.23911 24.9553 4.22415 24.948C4.21668 24.948 4.26901 24.349 4.35125 23.6257C4.43349 22.9025 4.4933 22.3035 4.48583 22.3035C4.47835 22.2962 4.26154 22.1866 4.00734 22.0624C3.74567 21.9382 3.52137 21.814 3.5139 21.7775C3.49895 21.7482 3.52137 21.3976 3.57371 20.9958C3.61857 20.594 3.64847 20.2433 3.63352 20.2068C3.61857 20.1776 3.40175 20.0534 3.14756 19.9292C2.88588 19.805 2.66907 19.6954 2.66159 19.6881C2.65411 19.6881 2.68402 19.3228 2.73635 18.8845C2.82607 18.1174 2.8186 18.0882 2.67654 18.0006C2.5943 17.9421 2.36254 17.8252 2.16815 17.7303C1.80928 17.5622 1.80181 17.5622 1.84667 17.27C1.86909 17.1093 1.90648 16.744 1.98124 15.955L1.4878 15.714C1.00183 15.4875 0.994359 15.4729 0.979406 15.1661C0.956977 14.8665 0.942024 14.8519 0 14.3479L0.0448583 13.9461C0.0747638 13.7269 0.142051 13.084 0.209339 12.5215C0.26915 11.959 0.343913 11.3818 0.411201 10.9874L1.16632 11.0458C1.58499 11.075 2.19806 11.1189 2.52702 11.1408C2.85598 11.1554 3.32699 11.1919 3.57371 11.2138C3.82043 11.2357 4.14939 11.3161 4.30639 11.3965C4.45592 11.4695 4.59797 11.528 4.6204 11.5133C4.64283 11.506 4.73255 10.9581 4.80731 10.2933C4.88955 9.62855 5.00917 8.65693 5.06899 8.13824C5.1288 7.61225 5.30075 6.17308 5.4428 4.92386C5.58486 3.67463 5.74186 2.34504 5.77924 1.96516C5.8241 1.58528 5.86896 1.20539 5.89139 1.12504C5.92129 0.993538 5.97363 0.978927 7.01284 1.03006L7.12499 0ZM8.14178 2.57881C8.11187 2.81989 8.02963 3.57966 7.94739 4.25906C7.86515 4.94577 7.71562 6.22422 7.61843 7.10818C7.51376 7.99213 7.36423 9.2925 7.27452 9.99382C7.19228 10.6951 7.09508 11.5718 7.05023 11.9298C7.01284 12.295 6.9306 13.0329 6.86332 13.5735C6.80351 14.1141 6.68388 15.1149 6.60164 15.787C6.5194 16.4591 6.45212 17.0655 6.45212 17.1385C6.45959 17.2554 6.39978 17.2554 5.76429 17.2043C5.27085 17.1604 4.97179 17.0947 4.7176 16.9632C4.52321 16.8682 4.34378 16.7879 4.32135 16.7879C4.30639 16.7879 4.27649 16.934 4.26901 17.1093L4.24658 17.438L5.27085 17.9202C5.20356 18.3731 5.16618 18.7384 5.13627 19.016L5.08394 19.5274L6.11568 20.0096C6.03344 20.7693 5.98858 21.1346 5.95867 21.3172L5.91382 21.646C6.94556 22.1062 6.97546 22.1354 6.93808 22.3254C6.91565 22.435 6.87079 22.7929 6.84089 23.1217L6.78855 23.728C7.25209 23.7792 8.11187 23.8303 8.99409 23.8741C9.88377 23.918 10.9604 23.9691 11.3865 23.991C11.8202 24.0129 12.5977 24.0568 13.1061 24.086C13.622 24.1225 14.0481 24.1444 14.0631 24.1371C14.0705 24.1371 14.1304 23.7207 14.1902 23.2166C14.25 22.7126 14.3247 22.077 14.3472 21.7921C14.3696 21.5145 14.4219 21.2296 14.4593 21.1711C14.5042 21.0908 14.6388 21.0688 15.0126 21.0835C15.4238 21.0981 15.506 21.0761 15.5359 20.9739C15.5509 20.9008 15.6032 20.4844 15.6481 20.0388C15.7004 19.6004 15.7677 19.0014 15.8051 18.7092C15.8424 18.417 15.8724 18.1467 15.8724 18.1028C15.8724 18.059 16.0966 18.0371 16.4256 18.0517L16.9789 18.0663C17.1134 16.7659 17.2779 15.3122 17.4349 14.0045L17.7041 11.6156L16.6948 11.1262L16.7695 10.5052C15.7901 10.5052 15.663 10.476 15.1995 10.2349C14.6911 9.9646 14.6761 9.94999 14.6761 9.68699C14.6761 9.46052 14.6462 9.40208 14.5117 9.37286C14.4219 9.35825 14.2425 9.33633 14.1154 9.33633H13.8911C13.6818 11.2357 13.5995 11.9298 13.5696 12.1051L13.5173 12.4265C12.2463 12.3608 12.1192 12.3242 11.6706 12.0905C11.2893 11.8859 11.1697 11.791 11.1996 11.696C11.2146 11.6229 11.252 11.3526 11.2744 11.0896C11.3043 10.8266 11.394 10.0888 11.4688 9.44591C11.551 8.80303 11.6108 8.25513 11.6108 8.22591C11.6108 8.19668 11.4239 8.17477 11.1847 8.18938L10.751 8.20399C10.3847 11.3161 10.28 12.2293 10.2725 12.2439C10.2725 12.2512 9.97349 12.2366 9.61462 12.2147C9.07633 12.1781 8.86699 12.127 8.45579 11.9225C8.17916 11.7836 7.94739 11.6595 7.94739 11.6375C7.94739 11.6156 8.1343 9.9646 8.36607 7.97022C8.59784 5.96853 8.84456 3.79151 8.91932 3.12672C9.03147 2.21354 9.03894 1.90672 8.97166 1.87019C8.9268 1.84097 8.73989 1.81174 8.56793 1.81174C8.29878 1.81174 8.24645 1.84097 8.21654 1.97977C8.20159 2.06743 8.16421 2.33774 8.14178 2.57881ZM2.51206 13.5589C2.46721 13.9095 2.45225 14.2017 2.48216 14.2164C2.50459 14.231 2.72888 14.3405 2.9756 14.472C3.41671 14.7058 3.42418 14.7131 3.40923 14.998C3.40175 15.2829 3.40923 15.2976 3.80548 15.4948L4.2092 15.692C4.26901 15.2099 4.30639 14.8227 4.34378 14.5159L4.39611 13.9534C3.40175 13.4712 3.3868 13.4566 3.3868 13.1936V12.916H2.58683L2.51206 13.5589Z" fill="#141414"/>
</svg>
