<svg width="36" height="36" viewBox="0 0 36 36" fill="none" xmlns="http://www.w3.org/2000/svg">
<path d="M0 18C0 12.4087 0 9.61305 0.913446 7.4078C2.13137 4.46746 4.46746 2.13137 7.4078 0.913446C9.61305 0 12.4087 0 18 0C23.5913 0 26.3869 0 28.5922 0.913446C31.5325 2.13137 33.8686 4.46746 35.0866 7.4078C36 9.61305 36 12.4087 36 18C36 23.5913 36 26.3869 35.0866 28.5922C33.8686 31.5325 31.5325 33.8686 28.5922 35.0866C26.3869 36 23.5913 36 18 36C12.4087 36 9.61305 36 7.4078 35.0866C4.46746 33.8686 2.13137 31.5325 0.913446 28.5922C0 26.3869 0 23.5913 0 18Z" fill="#0E0E0E"/>
<path d="M18 8L20.0521 12.3618L24.4279 10.3396L23.1962 15L27.8481 16.2635L23.9088 19.0419L26.6603 23L21.8567 22.5963L21.4202 27.3969L18 24L14.5798 27.3969L14.1433 22.5963L9.33975 23L12.0912 19.0419L8.15192 16.2635L12.8038 15L11.5721 10.3396L15.9479 12.3618L18 8Z" fill="white"/>
</svg>
