<svg width="42" height="42" viewBox="0 0 42 42" fill="none" xmlns="http://www.w3.org/2000/svg">
<path d="M0 21C0 15.4162 0 12.6242 0.734152 10.3647C2.21792 5.79818 5.79818 2.21792 10.3647 0.734152C12.6242 0 15.4162 0 21 0C26.5838 0 29.3758 0 31.6353 0.734152C36.2018 2.21792 39.7821 5.79818 41.2658 10.3647C42 12.6242 42 15.4162 42 21C42 26.5838 42 29.3758 41.2658 31.6353C39.7821 36.2018 36.2018 39.7821 31.6353 41.2658C29.3758 42 26.5838 42 21 42C15.4162 42 12.6242 42 10.3647 41.2658C5.79818 39.7821 2.21792 36.2018 0.734152 31.6353C0 29.3758 0 26.5838 0 21Z" fill="#0E0E0E"/>
<path d="M20.7979 10L23.0138 14.7099L27.7387 12.5262L26.4087 17.5586L31.4318 18.9229L27.1783 21.923L30.1492 26.1969L24.9624 25.761L24.491 30.9447L20.7979 27.2767L17.1048 30.9447L16.6335 25.761L11.4466 26.1969L14.4176 21.923L10.164 18.9229L15.1872 17.5586L13.8572 12.5262L18.5821 14.7099L20.7979 10Z" fill="white"/>
</svg>
