<svg width="293" height="200" viewBox="0 0 293 200" fill="none" xmlns="http://www.w3.org/2000/svg">
<g clip-path="url(#clip0_5889_38739)">
<path d="M80.6596 99.0007C80.6596 99.7753 80.7453 100.444 80.9279 100.995C81.1064 101.551 81.4218 102.067 81.8797 102.553C82.3404 103.032 83.0127 103.399 83.8967 103.649C84.7834 103.903 85.8831 104.028 87.1988 104.028H97V110H87.1669C82.6903 110 79.373 108.982 77.2233 106.95C75.0735 104.919 74 102.268 74 98.9993C74 95.7322 75.0735 93.0811 77.2233 91.0472C79.373 89.0162 82.6903 88 87.1669 88H97V93.9721H87.1988C84.6879 93.9721 82.9712 94.4117 82.0485 95.2911C81.123 96.1705 80.6596 97.408 80.6596 99.0007Z" fill="#ABABAB"/>
<path d="M118.23 111H115.771C113.363 111 111.263 110.698 109.462 110.103C107.663 109.504 106.227 108.677 105.156 107.614C104.081 106.547 103.289 105.343 102.773 103.986C102.256 102.635 102 101.139 102 99.4992C102 97.8612 102.256 96.3651 102.773 95.0141C103.289 93.6571 104.081 92.4497 105.156 91.3857C106.227 90.3218 107.663 89.4901 109.462 88.8953C111.263 88.2989 113.363 88 115.771 88H118.23C120.635 88 122.737 88.2989 124.54 88.8953C126.337 89.4901 127.776 90.3218 128.847 91.3857C129.916 92.4497 130.714 93.6571 131.226 95.0141C131.743 96.3651 132 97.8612 132 99.4992C132 101.137 131.744 102.635 131.226 103.986C130.714 105.343 129.917 106.547 128.847 107.614C127.776 108.678 126.337 109.505 124.54 110.103C122.737 110.697 120.635 111 118.23 111ZM115.802 104.93H118.198C120.869 104.93 122.703 104.455 123.704 103.508C124.707 102.561 125.207 101.226 125.207 99.5008C125.207 97.7753 124.7 96.4406 123.692 95.4906C122.679 94.545 120.848 94.07 118.198 94.07H115.827C114.439 94.07 113.257 94.2017 112.297 94.471C111.339 94.7359 110.604 95.1325 110.1 95.6519C109.595 96.1757 109.24 96.7439 109.039 97.3595C108.835 97.9796 108.734 98.6927 108.734 99.5022C108.734 101.229 109.247 102.562 110.265 103.509C111.287 104.455 113.134 104.93 115.802 104.93Z" fill="#ABABAB"/>
<path d="M142.284 88V104.028H157V110H136V88H142.284Z" fill="#ABABAB"/>
<path d="M199.864 110V103.367L187 88H196.228L203.022 98.042L209.765 88H219L206.128 103.367V110H199.864Z" fill="#ABABAB"/>
<path d="M182.813 91.0474C180.69 89.0163 177.414 88 172.991 88H163V93.9477H165.946V93.9725H172.96C175.419 93.9725 177.104 94.4122 178.021 95.2916C178.935 96.1681 179.392 97.4071 179.392 99C179.392 99.7746 179.305 100.443 179.127 100.995C178.951 101.551 178.636 102.066 178.182 102.553C177.729 103.032 177.066 103.399 176.19 103.649C175.318 103.902 174.242 104.028 172.96 104.028H165.946H171.632H163V110H172.991C177.414 110 180.69 108.982 182.813 106.95C184.936 104.919 186 102.267 186 98.9985C186 95.7328 184.936 93.0829 182.813 91.0474Z" fill="#ABABAB"/>
</g>
<defs>
<clipPath id="clip0_5889_38739">
<rect width="145" height="24" fill="white" transform="translate(74 88)"/>
</clipPath>
</defs>
</svg>
