<svg width="293" height="200" viewBox="0 0 293 200" fill="none" xmlns="http://www.w3.org/2000/svg">
<g clip-path="url(#clip0_5889_38726)">
<path d="M49.3991 113.427H34.3747V107.551L49.3991 97.0344V113.427ZM51.4365 90.6353L61.908 97.9723V85.8936H34.3633V102.577L51.4365 90.6353ZM53.4716 97.0344V113.425H61.9148V102.953L53.4716 97.0344Z" fill="#ABABAB"/>
<path d="M254.726 85.5H247.453V88.4093H254.726V85.5Z" fill="#ABABAB"/>
<path d="M82.457 95.0883V110.211H78.0977V91.1387H92.8102V95.0883H82.457Z" fill="#ABABAB"/>
<path d="M94.6484 109.61C95.7388 107.65 96.2852 104.601 96.2852 100.429V91.1387H112.359V110.211H107.995V95.0883H100.642V100.021C100.642 104.897 100.126 108.276 99.0897 110.211H94.6484V109.61Z" fill="#ABABAB"/>
<path d="M122.681 91.1387H128.937L136.449 110.211H131.669L130.198 106.259H121.425L119.954 110.211H115.188L122.681 91.1387ZM128.728 102.309L125.814 94.5169L122.898 102.309H128.728Z" fill="#ABABAB"/>
<path d="M139.285 91.1387H149.092C152.798 91.1387 155.222 93.0736 155.222 96.0421C155.222 98.1136 154.189 99.5569 152.09 100.401C154.487 101.084 155.903 102.637 155.903 104.897C155.903 108.276 153.369 110.211 149.229 110.211H139.285V91.1387ZM148.958 98.4938C150.292 98.4938 151.006 97.8405 151.006 96.725C151.006 95.7439 150.271 95.0883 148.958 95.0883H143.645V98.5029L148.958 98.4938ZM149.502 106.259C150.836 106.259 151.68 105.523 151.68 104.353C151.68 103.183 150.836 102.446 149.502 102.446H143.645V106.259H149.502Z" fill="#ABABAB"/>
<path d="M168.612 106.532C171.853 106.532 173.786 104.461 174.414 101.274L178.418 102.881C177.301 107.568 173.813 110.482 168.584 110.482C162.508 110.482 158.584 106.287 158.584 100.675C158.477 95.1982 162.998 90.7592 168.584 90.8662C173.624 90.8662 176.811 93.6457 177.628 97.2151L173.624 99.0089C173.078 96.366 171.145 94.8135 168.502 94.8135C165.45 94.8135 162.943 97.1286 162.943 100.671C162.943 104.272 165.559 106.532 168.612 106.532Z" fill="#ABABAB"/>
<path d="M197.099 95.0883H190.561V110.211H186.202V95.0883H179.664V91.1387H197.099V95.0883Z" fill="#ABABAB"/>
<path d="M204.5 110.211H200.141V91.1387H209.267C213.517 91.1387 215.67 93.8909 215.67 97.1052C215.67 100.21 213.462 103.126 209.267 103.126H204.5V110.211ZM208.996 99.1767C210.412 99.1767 211.311 98.4414 211.311 97.1279C211.311 95.8144 210.412 95.0792 208.996 95.0792H204.5V99.1767H208.996Z" fill="#ABABAB"/>
<path d="M238.552 100.675C238.662 105.988 233.947 110.619 228.472 110.482C222.995 110.619 218.283 105.988 218.392 100.675C218.283 95.362 222.995 90.7591 228.472 90.8661C233.947 90.7591 238.659 95.3666 238.552 100.675ZM234.193 100.675C234.193 97.1877 231.659 94.9545 228.472 94.9545C225.286 94.9545 222.752 97.1877 222.752 100.675C222.752 104.163 225.286 106.396 228.472 106.396C231.659 106.396 234.193 104.163 234.193 100.675Z" fill="#ABABAB"/>
<path d="M249.265 110.211H241.801V91.1387H246.172V107.301L253.146 91.1387H260.611V110.211H256.252V94.048L249.265 110.211Z" fill="#ABABAB"/>
</g>
<defs>
<clipPath id="clip0_5889_38726">
<rect width="226.276" height="28" fill="white" transform="translate(34.3633 85.5)"/>
</clipPath>
</defs>
</svg>
