<svg width="293" height="200" viewBox="0 0 293 200" fill="none" xmlns="http://www.w3.org/2000/svg">
<path d="M102.214 89H108.656V97.2143H115.097V89H121.539V111.179H115.097V102.143H108.656V111.179H102.214V89ZM143.279 89V111.179H137.643V93.9286H133.617V100.5C133.617 103.285 132.86 106.784 131.201 108.714C129.541 110.857 126.673 111.821 123.149 111.179V105.429C126.466 106.073 127.175 104.785 127.175 100.5V89H143.279ZM148.916 89H154.552L158.578 102.143L161.799 89H168.24L170.656 111.179H165.019L163.409 98.8571L160.188 111.179H156.162L152.942 98.8571L151.331 111.179H145.695L148.916 89ZM173.071 89H179.513V98.0357L185.149 89H192.396L184.344 99.6786L192.396 111.179H185.149L179.513 102.143V111.179H173.071V89ZM146.5 66C109.174 66 84.5 79.9274 84.5 100.5C84.5 120.856 109.174 135 146.5 135C184.031 135 208.5 120.849 208.5 100.5C208.5 79.9274 184.027 66 146.5 66ZM146.5 131.714C111.459 131.714 87.7208 119.143 87.7208 100.5C87.717 81.6432 111.455 69.2857 146.5 69.2857C181.749 69.2857 205.279 81.6432 205.279 100.5C205.279 119.143 181.749 131.714 146.5 131.714ZM146.5 72.5714C113.53 72.5714 91.7468 83.5714 91.7468 100.5C91.7468 117.429 113.53 128.429 146.5 128.429C179.47 128.429 201.253 117.429 201.253 100.5C201.253 83.5714 179.465 72.5714 146.5 72.5714ZM146.5 128.429C113.946 128.429 92.5519 117 92.5519 100.5C92.5519 83.9998 113.942 72.5714 146.5 72.5714C179.058 72.5714 200.448 83.9998 200.448 100.5C200.448 117 179.05 128.429 146.5 128.429Z" fill="#ABABAB"/>
</svg>
