<svg width="293" height="200" viewBox="0 0 293 200" fill="none" xmlns="http://www.w3.org/2000/svg">
<path d="M116.916 117.5L109.54 104.174H104.911C107.659 103.881 109.974 102.856 111.854 101.245C114.313 99.1946 115.615 96.5586 115.615 93.4833C115.615 90.408 114.313 87.772 111.854 85.7218C109.395 83.5251 106.213 82.5 102.597 82.5H86.3974L76.8513 107.688L67.0158 82.5H58.916V117.5H60.941V86.3075L73.0906 117.5H75.4049L86.976 86.454V117.5H94.4972V104.32H101.295L108.527 117.5H116.916ZM94.4972 84.2573H100.138C104.188 84.2573 106.936 87.9184 106.936 93.4833C106.936 99.0481 104.188 102.709 100.138 102.709H94.4972V84.2573Z" fill="#ABABAB"/>
<path d="M159.44 108.86L155.824 102.123H153.51C154.812 101.977 155.969 101.391 156.981 100.659C158.283 99.6339 158.862 98.3159 158.862 96.705C158.862 95.0941 158.283 93.9226 156.981 92.8975C155.68 91.8724 154.233 91.2866 152.353 91.2866H144.542V108.86H148.303V102.27H151.774L155.39 108.86H159.44ZM148.303 101.391V92.1653H151.051C153.076 92.1653 154.378 93.9226 154.378 96.705C154.378 99.4874 153.076 101.245 151.051 101.245H148.303V101.391Z" fill="#ABABAB"/>
<path d="M170.722 108.86C168.119 108.86 165.949 107.981 164.213 106.37C162.478 104.613 161.61 102.563 161.61 100.073C161.61 97.5837 162.478 95.387 164.213 93.7762C165.949 92.0188 168.119 91.2866 170.722 91.2866C173.326 91.2866 175.495 92.1653 177.231 93.7762C178.966 95.5335 179.834 97.5837 179.834 100.073C179.834 102.563 178.966 104.759 177.231 106.37C175.495 108.128 173.326 108.86 170.722 108.86ZM170.722 108.274C172.313 108.274 173.47 107.542 174.483 106.077C175.495 104.613 175.929 102.563 175.929 100.073C175.929 97.5837 175.495 95.6799 174.483 94.069C173.615 92.6046 172.313 91.8724 170.722 91.8724C169.131 91.8724 167.974 92.6046 166.961 94.069C166.094 95.5335 165.515 97.5837 165.515 100.073C165.515 102.563 165.949 104.467 166.961 106.077C167.829 107.542 169.131 108.274 170.722 108.274Z" fill="#ABABAB"/>
<path d="M196.034 91.2866C196.034 91.2866 196.034 103.441 196.034 105.638C195.166 106.956 193.72 107.688 191.839 107.688C188.657 107.688 186.632 105.638 186.632 102.123V91.2866H182.872V101.684C182.872 103.734 183.595 105.492 185.041 106.81C186.488 108.128 188.368 108.713 190.682 108.713C192.852 108.713 194.443 108.128 195.745 106.956C196.034 106.663 196.323 106.37 196.468 106.077L199.216 108.86H199.794V91.2866H196.034Z" fill="#ABABAB"/>
<path d="M211.366 91.2866C213.246 91.2866 214.692 91.8724 215.994 92.8975C217.296 93.9226 217.874 95.2406 217.874 96.705C217.874 98.3159 217.296 99.4874 215.994 100.659C214.692 101.684 213.246 102.27 211.366 102.27H207.316V108.86H203.555V91.2866H211.366ZM210.208 101.391C212.233 101.391 213.535 99.6339 213.535 96.8515C213.535 94.069 212.233 92.3117 210.208 92.3117H207.46V101.391H210.208Z" fill="#ABABAB"/>
<path d="M137.021 101.391C137.021 101.391 137.021 103.881 137.021 105.784C136.587 107.395 135.141 108.42 133.116 108.42C131.38 108.42 130.223 107.688 129.211 106.224C128.198 104.759 127.764 102.856 127.764 100.366C127.764 95.094 130.223 92.0187 134.273 92.0187C135.719 92.0187 136.876 92.3116 137.744 93.0438C138.757 93.776 139.191 94.6547 139.191 95.8262H139.914C139.914 94.5082 139.191 93.1902 138.034 92.3116C136.876 91.4329 135.285 91.14 133.405 91.14C130.657 91.14 128.487 92.0187 126.607 93.6296C124.871 95.3869 124.004 97.5835 124.004 100.073C124.004 102.563 124.871 104.759 126.607 106.517C128.343 108.274 130.657 109.006 133.116 109.006C135.43 109.006 137.31 108.274 138.178 106.956L140.203 108.86H140.782V101.391H137.021Z" fill="#ABABAB"/>
</svg>
