<svg width="293" height="200" viewBox="0 0 293 200" fill="none" xmlns="http://www.w3.org/2000/svg">
<g clip-path="url(#clip0_5889_38688)">
<path d="M65.5 80C54.1636 80 45 88.9401 45 100C45 111.06 54.1636 120 65.5 120C76.8364 120 86 111.06 86 100C86 88.9401 76.7419 80 65.5 80ZM62.5714 108.479L61.0599 112.811C55.3917 110.968 51.6129 105.714 51.6129 99.8157C51.6129 93.917 55.3917 88.7558 61.1544 86.8203L62.6659 91.1521C58.8871 92.3502 56.4309 95.8525 56.4309 99.7235C56.3364 103.779 58.7926 107.281 62.5714 108.479ZM69.6567 112.903L68.2396 108.479C72.1129 107.281 74.6636 103.779 74.6636 99.8157C74.6636 95.8525 72.1129 92.4424 68.3341 91.2442L69.8456 86.8203C75.6083 88.6636 79.4816 93.917 79.4816 99.8157C79.3871 105.899 75.4194 111.152 69.6567 112.903Z" fill="#ABABAB"/>
<path d="M247.116 103.591L249.313 106.217C247.025 108.572 244.187 109.207 241.899 109.207C239.703 109.207 238.147 108.844 236.774 108.21C233.845 106.761 232.381 103.862 232.381 100.33C232.381 94.9855 236.042 91 241.442 91C247.482 91 250.411 95.4384 249.954 101.236H236.225C236.316 102.685 237.14 104.043 238.33 104.768C239.337 105.402 240.526 105.674 242.082 105.674C243.821 105.764 245.56 105.13 247.116 103.591ZM236.408 98.1558H246.109C245.835 96.0725 244.096 94.2609 241.35 94.2609C238.421 94.2609 236.682 96.2536 236.408 98.1558ZM144.149 108.754H149.092L141.312 99.7862L149 91.3623H144.149L138.292 98.0652H136.553V91.3623H132.8V108.663H136.553V101.779H138.292L144.149 108.754ZM160.35 94.5326C157.146 94.5326 155.041 96.9783 155.041 100.058C155.041 103.138 157.146 105.583 160.35 105.583C163.553 105.583 165.567 103.228 165.567 100.058C165.567 97.0688 163.645 94.5326 160.35 94.5326ZM160.99 91C165.933 91 169.594 94.8043 169.594 100.058C169.594 105.221 166.024 109.207 160.99 109.207C158.611 109.207 156.689 108.391 155.316 106.942V116H151.472V91.4529H155.224V93.5362C156.689 91.8152 158.519 91 160.99 91ZM210.78 91.4529H195.129V94.8949H201.079V108.754H204.923V94.8949H210.872V91.4529H210.78ZM130.146 91.4529H114.495V94.8949H120.444V108.754H124.197V94.8949H130.146V91.4529ZM109.827 100.149C109.827 96.8877 107.539 94.5326 104.336 94.5326C101.224 94.5326 98.8441 96.8877 98.8441 100.149C98.8441 103.409 101.132 105.764 104.336 105.764C107.448 105.764 109.827 103.409 109.827 100.149ZM95 100.149C95 94.9855 99.0271 91.0906 104.427 91.0906C109.827 91.0906 113.854 94.9855 113.854 100.149C113.854 105.312 109.827 109.297 104.427 109.297C99.0271 109.297 95 105.312 95 100.149ZM229.36 91.4529V108.754H225.608V97.6123L216.455 108.754H213.435V91.4529H217.187V102.594L226.34 91.4529H229.36ZM192.567 108.754H188.814V91.4529H192.567V108.754ZM182.773 102.866C182.773 101.326 181.675 100.239 180.211 100.239H176.367V105.583H180.211C181.675 105.583 182.773 104.406 182.773 102.866ZM186.618 102.866C186.618 106.308 184.055 108.754 180.394 108.754H172.706V91.4529H176.458V97.0688H180.76C184.329 97.0688 186.618 99.3333 186.618 102.866Z" fill="#ABABAB"/>
</g>
<defs>
<clipPath id="clip0_5889_38688">
<rect width="205" height="40" fill="white" transform="translate(45 80)"/>
</clipPath>
</defs>
</svg>
