<svg width="293" height="200" viewBox="0 0 293 200" fill="none" xmlns="http://www.w3.org/2000/svg">
<path d="M61.1571 88.8063C58.8555 92.1151 57.5 96.1347 57.5 100.465C57.5 105.449 59.2933 110.02 62.2632 113.568C62.2632 113.352 62.2632 113.135 62.2632 112.914V95.5651C62.2632 94.3084 62.2632 93.1694 62.0279 92.1434C61.9149 91.1691 61.5901 90.0865 61.1571 88.8063ZM73.2864 92.5999C72.2321 92.5999 71.0601 92.7176 69.6528 93.1694C69.1868 93.4001 68.5985 93.626 68.0101 93.9649V106.974C69.2998 108.344 70.8247 109.026 72.7027 109.026C75.0467 109.026 76.92 108.339 78.0966 106.974C79.3816 105.487 80.0923 103.552 80.0923 100.926C80.0923 98.2998 79.3863 96.2476 78.2143 94.765C77.0423 93.2824 75.282 92.5952 73.2864 92.5952M215.571 119.833H134.013V119.809C124.75 118.6 117.581 110.448 117.581 100.559C117.581 90.6701 124.745 82.5181 134.013 81.3085V81.2849H215.571C225.874 81.2849 234.252 89.9312 234.252 100.559C234.252 111.187 225.874 119.833 215.571 119.833ZM68.0101 92.7176L71.879 88.9522L72.5804 88.6086C73.3993 88.265 74.4583 88.1521 75.748 88.1521C77.513 88.1521 79.0709 88.5427 80.4171 89.3052V86.6647C80.4171 85.0691 80.2994 83.8124 80.064 82.7864C79.9558 81.8592 79.6546 80.9272 79.2498 80H77.9601C71.093 80 65.0119 83.403 61.2983 88.6086H68.0101V92.7176ZM214.992 80H86.7241C86.5593 80.6213 86.4087 81.2896 86.2863 81.9862C86.1687 83.2429 86.051 85.0644 86.051 87.3519V92.7176L90.3906 88.6086C91.7979 88.265 92.9699 88.1521 94.0242 88.1521C96.6035 88.1521 98.4815 88.7216 99.8888 90.0912C101.178 91.4609 101.884 93.4048 101.884 96.0264V105.383C101.884 105.779 101.889 106.151 101.899 106.508C102.849 107.478 103.809 108.179 104.868 108.692C105.923 109.149 107.095 109.488 108.154 109.488C109.33 109.488 110.267 109.144 110.968 108.575C111.67 108.118 112.023 107.431 112.023 106.522C112.023 105.953 111.787 105.266 111.204 104.583C110.615 104.014 109.443 103.214 107.801 102.183C105.81 100.813 104.285 99.5564 103.461 98.4174C102.642 97.3914 102.172 96.2476 102.172 94.878C102.172 92.9388 103.108 91.3432 104.986 89.9736C106.864 88.7169 109.09 88.1473 111.905 88.1473C112.959 88.1473 113.901 88.1473 114.602 88.2603C115.308 88.4909 116.245 88.7169 117.181 89.0604V93.626C116.358 92.9388 115.539 92.3693 114.72 91.9127C113.901 91.5738 112.959 91.4562 111.905 91.4562C110.851 91.4562 109.909 91.6821 109.09 92.1386C108.384 92.5952 108.036 93.2824 108.036 93.9649C108.036 94.765 108.271 95.3345 108.742 95.9087C109.213 96.5912 110.145 97.2878 111.557 98.1915C113.896 99.6882 115.548 100.931 116.485 102.07C117.308 103.214 117.774 104.466 117.774 105.722C117.774 107.779 116.955 109.488 115.313 110.857C113.552 112.114 111.444 112.796 108.865 112.796C107.457 112.796 106.281 112.796 105.226 112.571C104.572 112.491 103.739 112.354 102.821 112.123C102.863 112.199 102.896 112.274 102.943 112.345H94.9702C95.4362 111.544 95.7892 110.749 95.9069 109.718C96.1422 108.692 96.2552 107.21 96.2552 105.383V96.5959C96.2552 95.2263 95.7892 94.2002 95.0832 93.513C94.2642 92.8305 93.0876 92.5999 91.5626 92.5999C90.5083 92.5999 89.101 92.8258 87.3406 93.513L86.051 94.0825V105.379C86.051 107.205 86.1687 108.687 86.2863 109.601C86.5217 110.627 86.8747 111.54 87.223 112.34H79.1321C79.1321 112.34 79.1368 112.331 79.1415 112.326C78.0825 112.636 76.9152 112.796 75.6397 112.796C72.7074 112.796 70.1281 112.001 68.0148 110.401V112.914C68.0148 114.171 68.0148 115.31 68.2502 116.336C68.3349 117.075 68.542 117.87 68.8244 118.765C71.5825 120.148 74.6843 120.93 77.9696 120.93H214.996C226.278 120.93 235.461 111.752 235.461 100.465C235.461 89.1781 226.279 80 214.992 80Z" fill="#ABABAB"/>
<path d="M176.324 98.7992C176.861 98.9169 177.511 99.1193 178.268 99.4111L178.551 98.4321L178.828 97.4484H172.159L171.806 98.4886L171.458 99.5194C172.074 99.1946 172.851 98.9593 173.788 98.8275L174.286 98.771V103.737C174.286 104.41 174.258 104.932 174.197 105.313C174.136 105.695 174.028 106.033 173.872 106.335H176.484C176.324 106.024 176.221 105.68 176.155 105.299C176.094 104.923 176.066 104.4 176.066 103.737V98.7522L176.334 98.8039L176.324 98.7992ZM193 103.732V100.051C193 99.3593 193.024 98.8181 193.08 98.4415C193.132 98.0603 193.231 97.7308 193.377 97.4531H190.845C190.986 97.7402 191.085 98.0697 191.141 98.4509C191.198 98.8322 191.231 99.364 191.231 100.051V101.106H188.115V100.051C188.115 99.5758 188.143 99.1522 188.2 98.771C188.251 98.3897 188.355 97.952 188.496 97.4531H185.959C186.105 97.9426 186.204 98.3756 186.26 98.7616C186.317 99.1428 186.34 99.5758 186.34 100.051V103.732C186.34 104.428 186.317 104.97 186.26 105.351C186.209 105.732 186.11 106.057 185.959 106.33H188.496C188.355 106.043 188.256 105.718 188.2 105.337C188.143 104.96 188.115 104.424 188.115 103.732V102.334H191.231V103.732C191.231 104.428 191.202 104.97 191.151 105.351C191.094 105.732 191 106.057 190.859 106.33H193.391C193.25 106.043 193.146 105.718 193.09 105.337C193.038 104.96 193.005 104.424 193.005 103.732M199.623 105.097H196.606C196.733 104.654 196.85 104.123 196.954 103.492C197.189 102.085 197.326 100.48 197.364 98.6769H199.627V105.092L199.623 105.097ZM202.489 105.097H201.392V100.047C201.392 99.5711 201.421 99.1475 201.477 98.7663C201.538 98.385 201.633 97.9473 201.774 97.4484H195.321C195.467 97.952 195.561 98.3897 195.608 98.771C195.65 99.1522 195.65 99.5758 195.617 100.047C195.528 101.275 195.391 102.409 195.189 103.445C195.062 104.108 194.916 104.659 194.765 105.092H193.739C193.782 105.219 193.815 105.426 193.852 105.718C193.909 106.146 193.928 106.603 193.904 107.097C193.885 107.591 193.824 107.987 193.739 108.279H195.937C195.848 107.987 195.791 107.591 195.768 107.092V106.325H200.451C200.47 106.565 200.465 106.824 200.451 107.092C200.428 107.587 200.381 107.987 200.291 108.279H202.489C202.4 107.987 202.343 107.591 202.324 107.092C202.301 106.598 202.324 106.137 202.376 105.713C202.409 105.422 202.442 105.219 202.489 105.092M219.005 97.4437L218.657 98.4839L218.304 99.5147C218.925 99.1899 219.697 98.9546 220.634 98.8228L221.132 98.7663V103.732C221.132 104.405 221.104 104.927 221.043 105.309C220.982 105.685 220.869 106.029 220.714 106.33H223.331C223.175 106.019 223.067 105.676 223.006 105.295C222.945 104.918 222.912 104.396 222.912 103.732V98.7475L223.185 98.7992C223.716 98.9169 224.366 99.1193 225.124 99.4111L225.406 98.4321L225.689 97.4484H219.014L219.005 97.4437ZM142.182 105.111H141.01C140.205 105.111 139.551 104.457 139.551 103.647C139.551 102.838 140.205 102.188 141.01 102.188H142.182V105.111ZM143.956 103.722V100.244C143.956 99.2511 143.716 98.498 143.236 97.9991C142.751 97.4955 142.031 97.246 141.076 97.246C140.737 97.246 140.403 97.279 140.078 97.3448C139.753 97.4107 139.414 97.519 139.066 97.6696L138.577 99.3734C138.944 99.1193 139.278 98.9357 139.584 98.8228C139.89 98.7145 140.205 98.658 140.53 98.658C141.038 98.658 141.438 98.7992 141.739 99.0863C142.036 99.3687 142.187 99.7547 142.187 100.239V101.049L139.574 102.127C139.014 102.358 138.567 102.682 138.238 103.082C137.908 103.487 137.743 103.915 137.743 104.372C137.743 105.059 137.974 105.586 138.445 105.958C138.915 106.325 139.579 106.514 140.45 106.514L140.812 106.499L142.191 105.469V106.321H144.281C144.159 106.085 144.079 105.779 144.032 105.403C143.985 105.026 143.961 104.466 143.961 103.722M150.367 104.311C149.967 104.843 149.407 105.111 148.672 105.111C148.079 105.111 147.585 104.843 147.18 104.32V99.4299C147.364 99.3264 147.543 99.237 147.717 99.1664C148.131 98.9969 148.503 98.9122 148.828 98.9122C149.482 98.9122 150.004 99.1946 150.386 99.7594C150.767 100.324 150.96 101.087 150.96 102.052C150.96 103.016 150.762 103.788 150.367 104.316M149.623 97.2507C149.233 97.2507 148.894 97.3119 148.616 97.4437L148.395 97.5567L147.185 98.9875V97.4437H145.034C145.175 97.9332 145.274 98.3709 145.331 98.7522C145.387 99.1334 145.411 99.5664 145.411 100.042V106.542C145.411 107.027 145.387 107.46 145.331 107.841C145.274 108.222 145.175 108.655 145.034 109.14H147.566C147.425 108.646 147.326 108.208 147.265 107.827C147.209 107.445 147.18 107.017 147.18 106.547V105.633C147.868 106.222 148.668 106.528 149.586 106.523C150.612 106.523 151.402 106.132 151.953 105.342C152.508 104.556 152.781 103.44 152.781 101.99C152.781 100.541 152.49 99.4441 151.906 98.5686C151.322 97.6884 150.56 97.2554 149.618 97.2554M163.423 98.4886C163.508 98.1073 163.654 97.759 163.866 97.4484H161.541C161.536 97.6084 161.456 97.8202 161.315 98.0932C161.169 98.3662 160.971 98.6439 160.736 98.9263L158.627 101.51L158.618 101.515H158.627L156.241 98.6298C156.081 98.4462 155.954 98.2438 155.85 98.0273C155.747 97.8108 155.695 97.6178 155.69 97.4484H153.313L153.925 98.1685V103.732C153.925 104.217 153.902 104.65 153.845 105.031C153.793 105.412 153.695 105.845 153.549 106.33H156.081C155.94 105.836 155.836 105.393 155.78 105.017C155.728 104.636 155.695 104.207 155.695 103.732V100.301L158.608 103.835L161.522 100.301V103.732C161.522 104.221 161.498 104.659 161.442 105.04C161.39 105.422 161.286 105.855 161.145 106.33H163.677C163.536 105.836 163.437 105.393 163.381 105.017C163.324 104.636 163.296 104.207 163.296 103.732V100.051C163.296 99.3923 163.334 98.8698 163.419 98.4886M168.94 105.139C168.111 105.139 167.452 104.838 166.967 104.231C166.478 103.624 166.238 102.809 166.238 101.779C166.238 100.748 166.469 99.9712 166.925 99.3782C167.386 98.7898 168.008 98.4933 168.789 98.4933C169.18 98.4933 169.533 98.5733 169.857 98.7286C170.182 98.8887 170.507 99.1428 170.832 99.4958L170.921 97.4484C170.46 97.3684 170.107 97.3166 169.848 97.2884C169.589 97.2648 169.283 97.2507 168.935 97.2507C167.631 97.2507 166.549 97.7167 165.683 98.6486C164.817 99.5805 164.383 100.753 164.383 102.16C164.383 103.412 164.774 104.452 165.555 105.28C166.337 106.109 167.316 106.523 168.492 106.523C168.831 106.523 169.123 106.504 169.373 106.471C169.622 106.438 169.942 106.372 170.347 106.269L171.048 104.57C170.53 104.781 170.121 104.927 169.81 105.012C169.509 105.092 169.217 105.134 168.93 105.134M182.839 105.116H181.671C180.866 105.116 180.208 104.461 180.208 103.652C180.208 102.842 180.862 102.193 181.671 102.193H182.839V105.116ZM184.613 103.727V100.249C184.613 99.2558 184.373 98.5027 183.888 98.0038C183.408 97.5002 182.683 97.2507 181.728 97.2507C181.389 97.2507 181.055 97.2837 180.73 97.3496C180.405 97.4155 180.066 97.5237 179.718 97.6743L179.229 99.3782C179.596 99.124 179.925 98.9404 180.231 98.8275C180.537 98.7192 180.852 98.6627 181.177 98.6627C181.685 98.6627 182.085 98.8039 182.387 99.091C182.683 99.3735 182.834 99.7594 182.834 100.244V101.054L180.222 102.132C179.662 102.362 179.214 102.687 178.89 103.087C178.56 103.492 178.395 103.92 178.395 104.377C178.395 105.064 178.631 105.591 179.097 105.963C179.567 106.335 180.231 106.518 181.102 106.518L181.459 106.504L182.839 105.473V106.325H184.933C184.815 106.09 184.731 105.784 184.688 105.407C184.641 105.031 184.618 104.471 184.618 103.727M207.361 105.116H206.193C205.384 105.116 204.73 104.461 204.73 103.652C204.73 102.842 205.384 102.193 206.193 102.193H207.361V105.116ZM209.135 103.727V100.249C209.135 99.2558 208.895 98.5027 208.415 98.0038C207.93 97.5002 207.21 97.2507 206.25 97.2507C205.911 97.2507 205.581 97.2837 205.252 97.3496C204.927 97.4155 204.588 97.5237 204.24 97.6743L203.751 99.3782C204.118 99.124 204.452 98.9404 204.753 98.8275C205.059 98.7192 205.374 98.6627 205.699 98.6627C206.207 98.6627 206.608 98.8039 206.909 99.091C207.21 99.3735 207.361 99.7594 207.361 100.244V101.054L204.744 102.132C204.184 102.362 203.741 102.687 203.412 103.087C203.082 103.492 202.913 103.92 202.913 104.377C202.913 105.064 203.148 105.591 203.619 105.963C204.089 106.33 204.753 106.518 205.624 106.518L205.982 106.504L207.361 105.473V106.325H209.45C209.333 106.09 209.253 105.784 209.201 105.407C209.159 105.031 209.13 104.471 209.13 103.727M215.564 104.316C215.164 104.847 214.604 105.116 213.87 105.116C213.277 105.116 212.783 104.847 212.373 104.325V99.4346C212.557 99.3311 212.74 99.2417 212.915 99.1711C213.329 99.0016 213.701 98.9169 214.025 98.9169C214.68 98.9169 215.197 99.1993 215.583 99.7641C215.969 100.329 216.162 101.091 216.162 102.056C216.162 103.021 215.964 103.793 215.569 104.32M214.821 97.2554C214.43 97.2554 214.091 97.3166 213.814 97.4484L213.592 97.5614L212.378 98.9922V97.4484H210.232C210.373 97.9379 210.472 98.3709 210.528 98.7569C210.58 99.1381 210.608 99.5711 210.608 100.047V106.547C210.608 107.031 210.58 107.464 210.528 107.846C210.472 108.227 210.373 108.66 210.232 109.145H212.764C212.623 108.65 212.519 108.213 212.467 107.831C212.411 107.45 212.378 107.022 212.378 106.551V105.638C213.065 106.226 213.87 106.532 214.788 106.528C215.814 106.528 216.605 106.137 217.16 105.346C217.711 104.56 217.988 103.445 217.988 101.995C217.988 100.545 217.692 99.4488 217.113 98.5733C216.529 97.6979 215.772 97.2601 214.825 97.2601M134.383 102.673C133.724 103.252 132.839 103.577 131.733 103.647L131.714 102.631V97.246L131.742 96.2247C132.839 96.3 133.71 96.6247 134.369 97.1989C135.126 97.8579 135.508 98.771 135.508 99.943C135.508 101.115 135.126 102.019 134.378 102.678M129.77 102.631L129.742 103.647C128.645 103.572 127.775 103.247 127.12 102.673C126.363 102.014 125.986 101.106 125.986 99.9383C125.986 98.771 126.363 97.8485 127.116 97.1942C127.775 96.6247 128.659 96.3 129.747 96.2152L129.77 97.246V102.631ZM135.931 96.1729C134.924 95.3633 133.569 94.9115 131.869 94.8268C131.926 94.4031 132.025 93.9701 132.157 93.5371H129.323C129.445 93.9842 129.544 94.4173 129.615 94.8268C127.92 94.9162 126.57 95.3586 125.567 96.1635C124.428 97.0766 123.863 98.3333 123.863 99.9383C123.863 101.543 124.428 102.8 125.553 103.704C126.556 104.504 127.911 104.951 129.615 105.04C129.544 105.459 129.445 105.892 129.323 106.33H132.157C132.025 105.897 131.926 105.464 131.865 105.04C133.564 104.951 134.919 104.508 135.927 103.704C137.052 102.8 137.616 101.543 137.616 99.9383C137.616 98.3333 137.047 97.0766 135.927 96.1729" fill="#ABABAB"/>
</svg>
