<svg width="293" height="200" viewBox="0 0 293 200" fill="none" xmlns="http://www.w3.org/2000/svg">
<path d="M113 99.5109C113 103.116 110.077 106.022 106.5 106C102.923 106 100 103.072 100 99.4891C100 95.8841 102.923 92.9783 106.5 93.0001C110.099 93.022 113 95.9278 113 99.5109Z" fill="#ABABAB"/>
<path d="M106.836 68C101.887 68 97.1901 69.1219 93 71.1087C98.5944 70.5243 104.396 72.9786 108.678 77.3494C110.819 79.4998 112.707 82.2812 114.296 85.647C123.39 87.3066 129.56 82.7253 132 79.9906C126.014 72.6747 116.966 68 106.836 68Z" fill="#ABABAB"/>
<path d="M88.1511 74.0954C83.7326 77.4067 80.2205 81.8217 78 86.9125C80.6737 87.5658 88.6722 90.1562 92.3429 100C93.4532 99.6396 95.8323 98.2655 97.4864 92.9494C99.503 86.4395 103.196 80.1548 108 77.3616C102.698 72.2708 94.6994 70.0407 88.1511 74.0954Z" fill="#ABABAB"/>
<path d="M134.879 116.329C137.262 112.098 138.621 107.549 139 103C136.772 108.049 131.961 111.825 126.235 113.349C123.428 114.145 120.198 114.373 116.656 114.122C110.887 121.082 111.689 128.588 112.758 132C121.758 130.431 129.978 124.972 134.879 116.329Z" fill="#ABABAB"/>
<path d="M138.992 96.3629C138.306 90.8304 136.203 85.5265 132.841 81C130.92 82.9889 124.609 88.6586 114.09 86.8754C113.838 88.0185 113.861 90.7847 117.703 94.9226C122.413 99.9978 126.095 106.399 126.118 112C133.253 109.988 139.244 104.113 138.992 96.3629Z" fill="#ABABAB"/>
<path d="M79.4552 116.599C81.9609 120.869 85.333 124.36 89.1969 127C85.8482 122.477 85.0286 116.254 86.6444 110.399C87.4171 107.506 88.8924 104.498 91 101.491C87.8152 92.8344 80.6963 89.7577 77.0901 89C73.7648 97.771 74.3034 107.851 79.4552 116.599Z" fill="#ABABAB"/>
<path d="M94.6379 129.498C99.7003 131.616 105.258 132.418 110.793 131.794C110.028 129.186 108.295 121.118 115 113.117C114.145 112.36 111.76 111.022 106.338 112.226C99.7003 113.719 92.4105 113.697 87.6181 111C85.8181 118.021 87.8881 125.933 94.6379 129.498Z" fill="#ABABAB"/>
<path d="M147.492 95H150.522C152.816 95 154.051 95.9593 154.051 97.6163C154.051 99.157 153.11 100 151.904 100.262C152.845 100.61 153.345 102.82 154.492 105H152.992C151.139 101.337 151.58 100.552 149.816 100.552H148.816V105H147.522V95H147.492ZM148.786 99.3605H150.58C151.816 99.3605 152.61 98.9244 152.61 97.7326C152.61 96.7442 151.963 96.1919 150.404 96.1919H148.757V99.3605H148.786Z" fill="#ABABAB"/>
<path d="M157 100C157 96.8926 158.823 95 161.457 95C164.408 95 166 97.0621 166 100C166 103.305 164.09 105 161.486 105C158.736 105 157 103.079 157 100ZM164.64 100C164.64 97.3446 163.424 96.1582 161.457 96.1582C159.72 96.1582 158.36 97.4011 158.36 100C158.36 102.542 159.662 103.842 161.63 103.842C163.482 103.842 164.64 102.514 164.64 100Z" fill="#ABABAB"/>
<path d="M169.32 103.113C169.786 103.423 170.602 103.817 171.621 103.817C172.961 103.817 173.602 103.225 173.602 102.211C173.602 101.085 173.049 100.775 171.68 100.268L171.33 100.155C169.874 99.6197 169.175 98.9718 169.175 97.4789C169.175 95.9014 170.398 95 172.379 95C173.602 95 174.534 95.3662 174.738 95.5352L174.417 96.6056C173.689 96.2676 172.903 96.1831 172.291 96.1831C171.184 96.1831 170.544 96.6338 170.544 97.5071C170.544 98.2676 170.864 98.7183 172.437 99.2817L172.816 99.4225C174.563 100.07 175 100.887 175 102.155C175 103.986 173.689 105 171.767 105C170.718 105 169.699 104.718 169 104.268L169.32 103.113Z" fill="#ABABAB"/>
<path d="M183.661 102.326H179.309L178.332 105H177L180.878 95H182.181L186 105H184.638L183.661 102.326ZM179.753 101.163H183.276L181.559 96.4535H181.5L179.753 101.163Z" fill="#ABABAB"/>
<path d="M191.121 105H189.879V96.1919H187V95H194V96.1919H191.121V105Z" fill="#ABABAB"/>
<path d="M196 100C196 96.8926 197.823 95 200.457 95C203.408 95 205 97.0621 205 100C205 103.305 203.09 105 200.486 105C197.736 105 196 103.079 196 100ZM203.64 100C203.64 97.3446 202.424 96.1582 200.457 96.1582C198.72 96.1582 197.36 97.4011 197.36 100C197.36 102.542 198.662 103.842 200.63 103.842C202.511 103.842 203.64 102.514 203.64 100Z" fill="#ABABAB"/>
<path d="M218 105H216.746L216.148 97.1802L213.67 105H212.331L209.88 97.2093L209.254 105H208L208.826 95H210.393L213.014 103.605L215.607 95H217.174L218 105Z" fill="#ABABAB"/>
</svg>
