<svg width="293" height="200" viewBox="0 0 293 200" fill="none" xmlns="http://www.w3.org/2000/svg">
<g clip-path="url(#clip0_5889_38750)">
<path fill-rule="evenodd" clip-rule="evenodd" d="M70.0755 81.5428H87.2684L80.6928 75H63.5V92.1073L70.0755 98.65V81.5428ZM90.8184 81.5428H108.011V98.65L114.587 92.1073V75H97.3939L90.8184 81.5428ZM108.011 102.182V119.29H90.8184L97.3939 125.832H114.587V108.725L108.011 102.182ZM87.2684 119.29H70.0755V102.182L63.5 108.725V125.832H80.6928L87.2684 119.29Z" fill="#ABABAB"/>
<path fill-rule="evenodd" clip-rule="evenodd" d="M156.413 113.741C158.607 113.741 160.388 115.73 160.388 118.18C160.388 120.63 158.607 122.618 156.413 122.618C154.218 122.618 152.438 120.63 152.438 118.18C152.438 115.73 154.218 113.741 156.413 113.741ZM156.413 110.359C160.785 110.359 164.33 113.862 164.33 118.18C164.33 122.498 160.785 126 156.413 126C152.041 126 148.495 122.498 148.495 118.18C148.495 113.862 152.041 110.359 156.413 110.359ZM174.929 113.741C176.286 113.741 177.562 114.346 178.279 115.505L180.88 113.023C179.429 111.391 177.301 110.359 174.929 110.359C170.557 110.359 167.011 113.862 167.011 118.18C167.011 122.498 170.557 126 174.929 126C177.356 126 179.527 124.92 180.98 123.222L178.277 120.919C177.556 122.042 176.26 122.618 174.929 122.618C172.735 122.618 170.954 120.63 170.954 118.18C170.954 115.73 172.735 113.741 174.929 113.741ZM201.1 119.206H212.472C212.515 118.87 212.537 118.528 212.537 118.18C212.537 113.862 209.118 110.359 204.901 110.359C200.684 110.359 197.264 113.862 197.264 118.18C197.264 122.498 200.684 126 204.901 126C207.306 126 210.071 125.594 211.471 123.814L209.732 121.31C208.86 122.558 206.552 122.905 205.08 122.905C203.133 122.905 201.505 121.321 201.1 119.206ZM201.186 116.775C201.703 114.852 203.251 113.454 205.08 113.454C206.908 113.454 208.457 114.852 208.973 116.775H201.186ZM183.276 110.717H195.515V114.072H191.285V125.643H187.506V114.072H183.276V110.717ZM218.793 117.948L213.641 110.717H218.192L221.276 115.337L224.359 110.717H228.91L223.758 117.948L229.143 125.643H224.745L221.276 120.647L217.806 125.643H213.408L218.793 117.948ZM221.276 116.036L221.258 116.066L221.276 116.066L221.293 116.066L221.276 116.036ZM139.302 108.756C140.943 108.756 142.274 110.081 142.274 111.714C142.274 113.347 140.943 114.672 139.302 114.672H134.292V108.756H139.302ZM130.141 105.244H140.156C143.747 105.244 146.659 108.141 146.659 111.714C146.659 115.287 143.747 118.184 140.156 118.184H134.292V125.643H130.141V105.244Z" fill="black"/>
<path fill-rule="evenodd" clip-rule="evenodd" d="M156.413 113.741C158.607 113.741 160.388 115.73 160.388 118.18C160.388 120.63 158.607 122.618 156.413 122.618C154.218 122.618 152.438 120.63 152.438 118.18C152.438 115.73 154.218 113.741 156.413 113.741ZM156.413 110.359C160.785 110.359 164.33 113.862 164.33 118.18C164.33 122.498 160.785 126 156.413 126C152.041 126 148.495 122.498 148.495 118.18C148.495 113.862 152.041 110.359 156.413 110.359ZM174.929 113.741C176.286 113.741 177.562 114.346 178.279 115.505L180.88 113.023C179.429 111.391 177.301 110.359 174.929 110.359C170.557 110.359 167.011 113.862 167.011 118.18C167.011 122.498 170.557 126 174.929 126C177.356 126 179.527 124.92 180.98 123.222L178.277 120.919C177.556 122.042 176.26 122.618 174.929 122.618C172.735 122.618 170.954 120.63 170.954 118.18C170.954 115.73 172.735 113.741 174.929 113.741ZM201.1 119.206H212.472C212.515 118.87 212.537 118.528 212.537 118.18C212.537 113.862 209.118 110.359 204.901 110.359C200.684 110.359 197.264 113.862 197.264 118.18C197.264 122.498 200.684 126 204.901 126C207.306 126 210.071 125.594 211.471 123.814L209.732 121.31C208.86 122.558 206.552 122.905 205.08 122.905C203.133 122.905 201.505 121.321 201.1 119.206ZM201.186 116.775C201.703 114.852 203.251 113.454 205.08 113.454C206.908 113.454 208.457 114.852 208.973 116.775H201.186ZM183.276 110.717H195.515V114.072H191.285V125.643H187.506V114.072H183.276V110.717ZM218.793 117.948L213.641 110.717H218.192L221.276 115.337L224.359 110.717H228.91L223.758 117.948L229.143 125.643H224.745L221.276 120.647L217.806 125.643H213.408L218.793 117.948ZM221.276 116.036L221.258 116.066L221.276 116.066L221.293 116.066L221.276 116.036ZM139.302 108.756C140.943 108.756 142.274 110.081 142.274 111.714C142.274 113.347 140.943 114.672 139.302 114.672H134.292V108.756H139.302ZM130.141 105.244H140.156C143.747 105.244 146.659 108.141 146.659 111.714C146.659 115.287 143.747 118.184 140.156 118.184H134.292V125.643H130.141V105.244Z" fill="#ABABAB"/>
</g>
<defs>
<clipPath id="clip0_5889_38750">
<rect width="166" height="51" fill="white" transform="translate(63.5 75)"/>
</clipPath>
</defs>
</svg>
