<svg width="293" height="200" viewBox="0 0 293 200" fill="none" xmlns="http://www.w3.org/2000/svg">
<path d="M190.623 92.0065L196 88H178V112H196V107.993H183.143V101.866H194.13V97.8592H183.143V92.0065H190.623Z" fill="#ABABAB"/>
<path d="M164.658 97.3486H158.27V92.0065H168.49L174 88H153V112H163.979C170.127 112 173.681 109.25 173.681 104.458C173.681 99.8625 170.487 97.3486 164.658 97.3486ZM163.779 107.993H158.27V101.355H163.779C167.133 101.355 168.69 102.455 168.69 104.694C168.69 106.933 167.013 107.993 163.779 107.993Z" fill="#ABABAB"/>
<path d="M211.805 88H202V112H207.156V105.205H211.844C218.094 105.205 222 101.905 222 96.6023C222 91.2995 218.094 88 211.805 88ZM211.687 101.198H207.117V92.0065H211.687C215.008 92.0065 216.805 93.6563 216.805 96.6023C216.805 99.5483 215.008 101.198 211.687 101.198Z" fill="#ABABAB"/>
<path d="M143.475 107.415C142.097 108.173 140.563 108.571 138.989 108.571C134.306 108.571 130.922 105.183 130.922 100.518C130.922 95.8538 134.306 92.4651 138.989 92.4651C140.681 92.4252 142.334 92.9834 143.711 93.98L147.449 91.1894L147.213 90.9502C145.049 88.9967 142.137 88 138.831 88C135.251 88 131.985 89.2359 129.623 91.4684C127.262 93.7807 125.925 97.0099 126.003 100.359C125.964 103.747 127.262 107.017 129.623 109.409C132.103 111.761 135.408 113.076 138.792 112.997C142.53 112.997 145.796 111.681 148 109.289L144.655 106.777L143.475 107.415Z" fill="#ABABAB"/>
<path d="M109.582 88C110.534 89.1923 111.326 90.5 112 91.8846L93.689 105L86 100.308V94.6923L93.6494 99.3462L109.582 88Z" fill="#ABABAB"/>
<path fill-rule="evenodd" clip-rule="evenodd" d="M108.5 100.5C108.5 109.06 101.56 116 93 116C84.4396 116 77.5 109.06 77.5 100.5C77.5 91.9396 84.4396 85 93 85C96.0394 85 98.8745 85.8748 101.267 87.3864L105.603 84.3304C102.126 81.6169 97.752 80 93 80C81.6782 80 72.5 89.1782 72.5 100.5C72.5 111.822 81.6782 121 93 121C104.322 121 113.5 111.822 113.5 100.5C113.5 99.0141 113.342 97.5652 113.042 96.1691L108.461 99.3975C108.487 99.7617 108.5 100.129 108.5 100.5Z" fill="#ABABAB"/>
</svg>
