<svg width="293" height="200" viewBox="0 0 293 200" fill="none" xmlns="http://www.w3.org/2000/svg">
<path d="M112.212 80.9316H106.793V112.965H112.212V80.9316Z" fill="#B5B5B5"/>
<path d="M75.505 98.4913C73.3158 96.0237 71.7543 94.6563 69.6034 92.6088C68.9221 91.8983 68.6083 91.4094 68.6083 90.2558C68.6083 88.7737 68.6083 88.4376 68.6159 87.6889V86.7034C68.6159 86.1763 69.0446 85.7485 69.5727 85.7485C69.634 85.7485 69.6876 85.7485 69.7411 85.7637C69.7641 85.7637 69.7871 85.7714 69.8024 85.779C69.8024 85.779 69.81 85.779 69.8177 85.779C70.2234 85.8936 70.5219 86.2603 70.5219 86.7034V92.4866H76.546V86.7722C76.546 82.5245 73.1703 81.0195 69.4885 81.0195C65.8067 81.0195 62.4924 82.5933 62.5 86.8027V91.2719C62.5 92.7616 62.8292 93.5485 63.3497 94.4805C64.9648 97.0245 68.2256 99.3164 69.6569 101.005C70.4454 101.899 70.5142 102.617 70.5142 103.35V106.88C70.5142 106.88 70.5142 107.193 70.5142 107.453V107.88C70.5142 107.987 70.4913 108.087 70.4607 108.186C70.4607 108.186 70.4607 108.186 70.4607 108.194C70.3994 108.385 70.2923 108.545 70.1392 108.667C70.0397 108.744 69.9478 108.79 69.833 108.82C69.7411 108.851 69.6416 108.866 69.5421 108.866C69.0752 108.866 68.6848 108.53 68.6006 108.094C68.5853 108.033 68.5853 107.972 68.5853 107.911V107.896L68.57 107.246C68.57 107.048 68.57 106.964 68.57 106.803V101.005H62.5536V107.773C62.5536 112.013 65.9216 113.58 69.611 113.58C73.3005 113.58 76.6761 112.013 76.6761 107.56V102.372C76.6761 100.279 76.2857 99.3699 75.505 98.499" fill="#B5B5B5"/>
<path d="M90.9017 96.3108V92.8806C90.9017 89.0455 87.9165 87.1279 84.5256 87.1279C81.1346 87.1279 78.1953 89.0455 78.1953 92.8806V107.51C78.1953 111.353 81.0964 113.271 84.5256 113.271C87.9548 113.271 90.9017 111.353 90.9017 107.51V102.85H85.4824V107.74C85.4824 107.793 85.4824 107.847 85.4824 107.892V108.152C85.4824 108.626 85.1303 109.008 84.671 109.061C84.671 109.061 84.671 109.061 84.6633 109.061C84.6251 109.061 84.5868 109.069 84.5409 109.069C84.3036 109.069 84.1275 108.985 83.9897 108.855C83.7831 108.687 83.6529 108.435 83.6529 108.145V108.053C83.6376 107.946 83.63 107.831 83.63 107.732V92.659C83.63 92.5979 83.63 92.5368 83.6376 92.4757V92.2236C83.6376 91.7193 84.051 91.3068 84.5562 91.3068C85.0614 91.3068 85.4747 91.7193 85.4747 92.2236V92.3611C85.49 92.4604 85.4977 92.5597 85.4977 92.659V96.3031H90.917L90.9017 96.3108Z" fill="#B5B5B5"/>
<path d="M101.484 87.135C100.029 87.135 98.1997 88.1205 97.9854 89.6866H97.7787V80.9316H92.3594V112.965H97.7787V93.1321C97.7787 93.071 97.7787 93.0175 97.7787 92.9564V92.7119C97.7787 92.3223 98.0237 91.9862 98.3681 91.8563C98.3834 91.8563 98.3988 91.8487 98.4141 91.841C98.4217 91.841 98.4294 91.841 98.437 91.841C98.4523 91.841 98.4676 91.841 98.4829 91.8334C98.5518 91.8181 98.6284 91.8028 98.7049 91.8028C99.2101 91.8028 99.6235 92.2154 99.6235 92.7272V92.9335C99.6235 93.0022 99.6311 93.071 99.6311 93.1474V112.98H105.05V92.7425C105.05 89.7936 104.92 87.1503 101.468 87.1503" fill="#B5B5B5"/>
<path d="M121.233 87.4414V107.274C121.233 107.327 121.233 107.381 121.233 107.434V107.694C121.233 108.206 120.819 108.618 120.306 108.618C120.237 108.618 120.169 108.611 120.1 108.596C120.031 108.58 119.962 108.557 119.901 108.527C119.587 108.382 119.372 108.061 119.372 107.694V107.427C119.372 107.373 119.372 107.327 119.372 107.274V87.4414H113.953V108.702C113.953 111.392 114.933 113.271 117.75 113.271C119.372 113.271 121.21 111.835 121.21 110.093H121.294L121.24 112.958H126.66V87.4414H121.24H121.233Z" fill="#B5B5B5"/>
<path d="M144.794 87.1348C142.613 87.1348 142.008 88.0744 141.059 89.7781C140.416 87.7154 139.482 87.1348 137.561 87.1348C135.379 87.1348 134.775 88.0286 133.91 89.7322H133.826V87.448H128.406V112.964H133.826V93.1319C133.826 93.0631 133.826 92.9944 133.833 92.918V92.7422C133.833 92.2075 134.262 91.7797 134.798 91.7797C135.334 91.7797 135.762 92.2075 135.762 92.7422V93.0173C135.762 93.0173 135.762 93.0937 135.762 93.1319V112.964H141.182V93.1319C141.182 93.0631 141.182 92.9867 141.189 92.9103V92.7422C141.189 92.2075 141.618 91.7797 142.154 91.7797C142.689 91.7797 143.118 92.2075 143.118 92.7422V93.0249C143.118 93.0249 143.118 93.0937 143.118 93.1319V112.964H148.537V91.879C148.537 89.9538 148.193 87.1348 144.779 87.1348" fill="#B5B5B5"/>
<path d="M159.111 87.135C157.488 87.135 156.164 88.2122 155.705 89.6866H155.621V80.9316H150.201V112.957H155.621V110.268H155.705C156.164 112.063 157.488 113.27 159.111 113.27C162.479 113.27 162.908 110.405 162.908 107.548V92.7272C162.908 89.87 162.479 87.135 159.111 87.135ZM157.488 94.9351V107.686C157.488 108.197 157.075 108.618 156.554 108.618C156.547 108.618 156.539 108.618 156.524 108.618C156.348 108.618 156.195 108.564 156.08 108.488C155.804 108.327 155.621 108.029 155.621 107.686V105.462V93.1321C155.621 93.0939 155.621 93.0557 155.621 93.0175V92.7119C155.621 92.2001 156.034 91.7799 156.547 91.7799C157.06 91.7799 157.481 92.1924 157.481 92.7119V94.9351H157.488Z" fill="#B5B5B5"/>
<path d="M177.242 92.8882C177.242 89.0531 174.256 87.1279 170.873 87.1279C167.49 87.1279 164.535 89.0455 164.535 92.8882V107.51C164.535 111.353 167.436 113.278 170.873 113.278C174.31 113.278 177.242 111.361 177.242 107.51V102.85H171.822V107.732C171.822 107.732 171.822 107.801 171.822 107.831V108.16C171.822 108.672 171.409 109.084 170.888 109.084C170.368 109.084 169.962 108.672 169.962 108.16V107.755C169.962 107.755 169.962 107.74 169.962 107.732V101.055H177.249V92.8806L177.242 92.8882ZM171.822 97.2504H169.955V92.6667C169.955 92.6208 169.955 92.575 169.955 92.5291V92.2541C169.955 91.7423 170.368 91.3221 170.881 91.3221C171.394 91.3221 171.807 91.7423 171.807 92.2541V97.2504H171.822Z" fill="#B5B5B5"/>
<path d="M188.257 87.1356C186.381 87.1356 185.21 88.0752 184.429 89.6414H184.345V87.4488H178.926V112.965H184.345V93.1327C184.345 93.1327 184.345 93.0716 184.345 93.041V92.7125C184.345 92.3305 184.582 91.9944 184.919 91.8569C184.965 91.8339 185.019 91.8187 185.08 91.8034H185.118C185.118 91.8034 185.118 91.7957 185.126 91.7957C185.172 91.7957 185.218 91.7805 185.271 91.7805C185.784 91.7805 186.198 92.193 186.198 92.7049V92.9722C186.198 93.0257 186.198 93.0716 186.198 93.125V101.192H191.617V91.6047C191.617 88.8316 190.936 87.1279 188.241 87.1279" fill="#B5B5B5"/>
<path d="M219.929 92.8874C219.929 89.0523 216.944 87.1348 213.561 87.1348C210.177 87.1348 207.223 89.0599 207.223 92.8874V107.51C207.223 111.352 210.124 113.278 213.561 113.278C216.997 113.278 219.929 111.36 219.929 107.51V102.849H214.51V105.913V108.151C214.51 108.663 214.089 109.083 213.568 109.083C213.048 109.083 212.634 108.663 212.634 108.151V105.913V101.062H219.921V92.8874H219.929ZM214.51 94.4764V97.2496H212.642V94.4764V92.2533C212.642 91.7415 213.063 91.3213 213.576 91.3213C214.089 91.3213 214.51 91.7338 214.51 92.2533V94.4764Z" fill="#B5B5B5"/>
<path d="M230.737 87.1348C228.862 87.1348 227.69 88.0744 226.902 89.6406H226.818V87.448H221.398V112.964H226.818V92.704C226.818 92.1922 227.231 91.7797 227.744 91.7797C228.257 91.7797 228.678 92.1998 228.678 92.704V93.0326C228.678 93.0326 228.678 93.1013 228.678 93.1319V101.199H234.097V91.6116C234.097 88.8384 233.416 87.1348 230.729 87.1348" fill="#B5B5B5"/>
<path d="M200.332 87.448V89.8239H200.125C199.505 88.3877 198.082 87.1348 196.459 87.1348C193.986 87.1348 193.045 89.2357 193.045 91.7033V107.082C193.045 109.526 193.986 111.391 196.459 111.391C198.082 111.391 199.505 110.367 200.125 108.946H200.332V114.637C200.332 114.683 200.332 114.721 200.332 114.767V115.073C200.332 115.585 199.919 115.997 199.406 115.997C198.893 115.997 198.48 115.585 198.48 115.073V114.813C198.48 114.76 198.48 114.706 198.48 114.645V112.758H193.06V114.164C193.06 118.366 195.663 119.932 199.436 119.932C203.21 119.932 205.767 118.366 205.767 114.164V87.448H200.347H200.332ZM200.332 106.028C200.332 106.539 199.911 106.96 199.398 106.96C198.885 106.96 198.464 106.539 198.464 106.028V103.797V92.704C198.464 92.1922 198.885 91.7797 199.39 91.7797C199.896 91.7797 200.324 92.1922 200.324 92.704V103.797V106.028H200.332Z" fill="#B5B5B5"/>
</svg>
