<svg width="293" height="200" viewBox="0 0 293 200" fill="none" xmlns="http://www.w3.org/2000/svg">
<path d="M65.2578 116.176C57.3144 116.176 53 110.27 53 102.87C53 95.3939 58.0784 89.2612 66.4169 89.2612C68.6303 89.2612 70.5508 89.5606 72.22 90.4586V95.2806C70.0065 93.9349 68.2326 93.6706 66.6 93.6706C60.9434 93.6706 58.8555 97.9721 58.8555 102.495C58.8555 107.541 61.485 111.54 66.0898 111.54C68.1227 111.54 69.758 110.96 71.715 109.876L73.1253 113.784C70.1923 115.69 67.6858 116.176 65.2578 116.176ZM154.579 116.176C148.702 116.176 145.693 111.729 145.693 106.421C145.693 100.477 149.683 96.5508 155.013 96.5508C157.37 96.5508 158.603 97.0363 159.581 97.635V101.899C158.276 100.925 157.224 100.588 155.774 100.588C152.766 100.588 150.827 102.87 150.827 106.16C150.827 109.113 152.329 111.99 155.701 111.99C156.643 111.99 157.891 111.57 159.231 110.86L160.487 114.382C158.966 115.429 156.429 116.176 154.579 116.176ZM170.923 101.187V115.804H165.701V101.187H160.625V96.9257H176.656L175.523 101.187H170.923ZM196.177 99.1317C196.177 105.709 195.923 109.151 194.764 110.72C194.183 111.505 193.278 112.031 192.333 112.176L193.783 116.176C194.978 116.138 196.831 115.615 198.1 114.307C199.769 112.624 200.311 110.494 200.564 108.25C200.782 106.343 200.928 104.102 200.928 102.12V101.184H205.012V115.801H210.235V96.923H196.177V99.1317ZM136.963 96.5508C134.932 96.5508 133.373 97.5622 132.031 98.6463L131.45 96.9257H127.062V125L132.284 123.355V115.391C133.229 115.914 134.461 116.176 135.804 116.176C141.206 116.176 144.469 111.429 144.469 105.823C144.469 99.841 141.17 96.5508 136.963 96.5508ZM134.535 112.29C133.59 112.29 132.865 111.953 132.284 111.543V102.608C132.902 101.637 134.535 100.477 135.911 100.477C138.014 100.477 139.247 101.861 139.247 105.75C139.247 108.964 138.088 112.29 134.535 112.29ZM184.16 96.5508C181.692 96.5508 179.304 96.9446 176.797 98.6166L178.38 101.874C179.61 101.16 181.193 100.604 183.045 100.604C184.856 100.604 186.475 101.429 186.475 103.414V103.735L183.309 103.859C178.689 104.018 175.567 106.084 175.567 110.057C175.567 113.795 178.184 116.176 181.653 116.176C184.008 116.176 185.625 115.264 186.818 114.151L187.629 115.804H191.716V103.544C191.716 98.5762 189.018 96.5508 184.16 96.5508ZM186.475 111.13C185.975 111.526 184.932 112.004 183.545 112.004C181.768 112.004 180.769 111.09 180.769 109.663C180.769 108.231 181.847 107.438 184.084 107.357L186.475 107.279V111.13ZM220.378 103.056H217.694V96.1032L212.472 97.546V115.804H219.146C224.005 115.804 228.539 114.455 228.539 109.261C228.539 104.852 224.876 103.056 220.378 103.056ZM219.507 112.079H217.694V106.81H219.436C221.284 106.81 223.317 107.109 223.317 109.35C223.317 111.556 221.574 112.079 219.507 112.079ZM103.601 105.523V105.372C105.304 105 106.72 103.84 106.72 101.373C106.72 98.4279 104.321 97.3545 101.963 97.0282C101.241 96.9284 99.6581 96.9257 98.7764 96.9257H91.3118V115.804H97.5807C98.274 115.804 99.3075 115.801 100.113 115.777C103.41 115.615 107.481 114.401 107.481 110.008C107.481 107.317 106.066 105.971 103.601 105.523ZM96.6362 100.521H98.7764C100.914 100.521 101.715 101.195 101.715 102.354C101.715 103.811 100.409 104.258 98.2322 104.258H96.6362V100.521ZM98.6665 112.222H96.5263V107.586H98.4127C100.914 107.586 102.256 108.185 102.256 109.868C102.256 111.661 100.48 112.222 98.6665 112.222ZM89.5928 106.198C89.5928 100.364 86.1104 96.5508 81.1053 96.5508C75.6292 96.5508 72.5471 101.111 72.5471 106.421C72.5471 111.392 75.2315 116.176 81.7594 116.176C83.9702 116.176 86.4349 115.655 88.9754 114.008L87.8137 110.607C85.7467 111.618 84.4045 111.953 82.628 111.953C80.1974 111.953 77.8766 110.383 77.7668 107.84H89.5928V106.198ZM77.6595 104.143C77.6595 102.422 78.8578 100.477 80.9588 100.477C83.1748 100.477 84.1507 102.346 84.2606 104.143H77.6595ZM125.568 106.198C125.568 100.364 122.086 96.5508 117.081 96.5508C111.605 96.5508 108.522 101.111 108.522 106.421C108.522 111.392 111.207 116.176 117.735 116.176C119.946 116.176 122.413 115.655 124.951 114.008L123.789 110.607C121.725 111.618 120.38 111.953 118.603 111.953C116.175 111.953 113.855 110.383 113.745 107.84H125.568V106.198ZM113.635 104.143C113.635 102.422 114.833 100.477 116.934 100.477C119.148 100.477 120.126 102.346 120.236 104.143H113.635Z" fill="#AEAFB0"/>
<path d="M237.835 83.5897C237.537 83.8028 237.231 83.97 236.919 84.0725C235.886 84.4096 234.612 84.0995 233.468 83.614C232.652 83.2661 231.796 82.8157 230.899 82.2467C231.367 81.0682 231.807 79.7225 232.181 78.2338C232.762 75.9226 233.039 73.8865 233.097 72.0984C233.133 70.9927 233.081 69.9814 232.963 69.0618C232.801 67.7969 232.424 66.5105 231.624 65.7527C231.37 65.5181 231.061 65.3212 230.716 65.1594C232.351 64.976 233.803 64.9626 235.085 65.0596C236.433 65.1783 237.804 65.5208 238.604 66.3299C239.405 67.1389 239.758 68.5494 239.899 69.9329C240.03 71.2543 240.041 72.7511 239.889 74.4447C239.734 76.1141 239.42 77.9695 238.905 80.0272H238.908C238.583 81.3001 238.212 82.5164 237.835 83.5897ZM218.089 82.5434C218.058 82.1712 218.071 81.8125 218.141 81.4835C218.374 80.3913 219.272 79.4123 220.253 78.6302C220.954 78.0774 221.757 77.538 222.686 77.0202C223.442 78.0288 224.353 79.0914 225.418 80.1701C227.068 81.8449 228.641 83.1097 230.114 84.0536C231.024 84.6388 231.898 85.0973 232.73 85.4533C233.874 85.9387 235.143 86.2488 236.181 85.9117C236.506 85.8012 236.825 85.6259 237.134 85.3993C236.469 86.95 235.755 88.2553 235.033 89.3502C234.258 90.4937 233.288 91.5482 232.207 91.8556C231.127 92.1658 229.766 91.7774 228.534 91.2111C227.359 90.669 226.095 89.9274 224.748 88.9457C223.424 87.9748 222.019 86.7666 220.548 85.2753C219.641 84.3557 218.801 83.4171 218.089 82.5434ZM228.814 65.4372C229.143 65.5963 229.436 65.7878 229.677 66.0143C230.478 66.7694 230.852 68.0612 231.019 69.3261C231.134 70.2268 231.184 71.2166 231.155 72.3034C229.928 72.4733 228.581 72.7538 227.142 73.1664C224.91 73.8028 223.06 74.5742 221.53 75.4183C220.582 75.9388 219.758 76.4889 219.047 77.0553C218.065 77.832 217.171 78.8109 216.935 79.9058C216.865 80.251 216.851 80.6232 216.891 81.0115C215.92 79.6442 215.18 78.3524 214.622 77.1604C214.047 75.8983 213.649 74.504 213.929 73.3848C214.209 72.2656 215.216 71.2435 216.307 70.4291C217.351 69.6497 218.604 68.8919 220.104 68.1826C221.582 67.4868 223.301 66.8369 225.287 66.2705C226.516 65.9145 227.725 65.6368 228.814 65.4372Z" fill="#AEAFB0"/>
</svg>
