<svg width="293" height="200" viewBox="0 0 293 200" fill="none" xmlns="http://www.w3.org/2000/svg">
<path d="M107.105 114H116.522C119.569 114 120.101 112.14 120.272 110.468C120.43 108.92 122.583 86 122.583 86H113.217C110.544 86 109.613 87.4244 109.417 89.7553C109.284 90.9207 107.105 114 107.105 114Z" fill="#B5B5B5"/>
<path d="M172.194 107.431H168.914L170.934 86H158.09C158.09 86 155.899 109.709 155.766 110.886C155.771 111.709 156.125 112.497 156.751 113.079C157.377 113.661 158.225 113.989 159.11 113.994H181.358C182.189 113.992 182.989 113.704 183.605 113.185C184.22 112.667 184.606 111.955 184.69 111.186C184.823 109.809 187.052 86 187.052 86H174.208L172.194 107.431Z" fill="#B5B5B5"/>
<path d="M80.8498 86C78.5572 86 77.3032 87.1066 77.0499 89.7082C76.9486 91.009 76.1442 99.4202 76.0429 100.633C75.9416 101.845 76.4229 102.911 78.0505 102.911H91.9835L91.4895 108.173H88.1709L88.3989 105.748H75.5553C75.5553 105.748 75.1943 109.939 75.0296 111.387C74.8649 112.835 75.3526 114 77.3665 114H100.166C103.782 114 103.966 111.534 104.175 109.668C104.371 107.937 105.106 99.791 105.207 98.761C105.236 98.5422 105.212 98.3202 105.137 98.1109C105.063 97.9017 104.939 97.7103 104.776 97.5506C104.613 97.3908 104.413 97.2666 104.192 97.1869C103.971 97.1072 103.734 97.0738 103.497 97.0893H89.2159L89.7099 91.8213H93.0348L92.8068 94.2405H105.65C105.65 94.2405 106.03 89.5316 106.201 88.2367C106.372 86.9418 105.612 86 104.13 86H80.8498Z" fill="#B5B5B5"/>
<path d="M125.848 86L123.214 113.994H148.907C151.073 113.994 152.295 112.746 152.492 110.586C152.574 109.709 152.859 106.742 153.087 104.3C153.162 103.887 153.113 103.463 152.946 103.075C152.778 102.686 152.498 102.348 152.137 102.098L149.097 100.021C149.097 100.021 152.004 98.2548 152.764 97.8016C153.524 97.3483 153.79 96.7774 153.885 95.7002C154.094 93.2575 154.373 90.4734 154.436 89.7023C154.607 87.6834 153.385 86 150.769 86H125.848ZM141.421 91.8213L140.927 97.1188H137.647L138.141 91.8507L141.421 91.8213ZM137.096 102.911H140.376L139.882 108.208H136.602L137.096 102.911Z" fill="#B5B5B5"/>
<path d="M215.707 86H190.336L187.733 114H200.577L201.394 105.336H204.656L203.839 113.994H216.682C216.682 113.994 217.246 107.837 217.347 106.931C217.437 106.467 217.389 105.99 217.208 105.55C217.027 105.11 216.721 104.725 216.321 104.435L213.389 102.428C213.389 102.428 215.998 100.862 216.822 100.344C217.645 99.8264 218.088 99.2672 218.221 97.6779C218.354 96.0887 218.912 90.4087 218.994 89.3433C219.021 88.9217 218.957 88.4993 218.806 88.1011C218.654 87.703 218.418 87.3372 218.111 87.0254C217.805 86.7136 217.434 86.4622 217.021 86.286C216.608 86.1099 216.161 86.0126 215.707 86ZM201.907 99.5379L202.54 92.5924H205.808L205.175 99.5379H201.907Z" fill="#B5B5B5"/>
</svg>
