<svg width="293" height="200" viewBox="0 0 293 200" fill="none" xmlns="http://www.w3.org/2000/svg">
<path d="M61.375 110.511V81.5068H100.047L85.9906 97.4278H73.1L61.375 110.511Z" fill="#ABABAB"/>
<path d="M100.047 91.7773V120.177H61.375L75.4312 104.618H88.3219L100.047 91.7773Z" fill="#ABABAB"/>
<path d="M223.424 108.848V95.4658H234.144V98.6497H226.409L227.279 97.804V108.848H223.424Z" fill="#ABABAB"/>
<path d="M214.041 109.05C212.913 109.05 211.926 108.801 211.081 108.303C210.235 107.806 209.572 107.051 209.091 106.04C208.627 105.012 208.394 103.718 208.394 102.16C208.394 100.584 208.618 99.2908 209.066 98.2793C209.514 97.2677 210.16 96.5132 211.006 96.0157C211.852 95.5183 212.863 95.2695 214.041 95.2695C215.301 95.2695 216.429 95.5597 217.424 96.1401C218.435 96.7039 219.231 97.4999 219.811 98.528C220.408 99.5561 220.707 100.767 220.707 102.16C220.707 103.569 220.408 104.788 219.811 105.816C219.231 106.844 218.435 107.64 217.424 108.204C216.429 108.768 215.301 109.05 214.041 109.05ZM206.131 113.676V95.4685H209.837V98.2046L209.762 102.184L210.011 106.139V113.676H206.131ZM213.369 105.866C214.016 105.866 214.588 105.717 215.085 105.418C215.599 105.12 216.006 104.697 216.304 104.149C216.619 103.586 216.777 102.922 216.777 102.16C216.777 101.38 216.619 100.717 216.304 100.17C216.006 99.6225 215.599 99.1996 215.085 98.9011C214.588 98.6026 214.016 98.4534 213.369 98.4534C212.722 98.4534 212.142 98.6026 211.628 98.9011C211.114 99.1996 210.708 99.6225 210.409 100.17C210.111 100.717 209.961 101.38 209.961 102.16C209.961 102.922 210.111 103.586 210.409 104.149C210.708 104.697 211.114 105.12 211.628 105.418C212.142 105.717 212.722 105.866 213.369 105.866Z" fill="#ABABAB"/>
<path d="M196.142 109.05C194.716 109.05 193.447 108.751 192.336 108.154C191.242 107.557 190.371 106.745 189.725 105.717C189.094 104.672 188.779 103.486 188.779 102.16C188.779 100.816 189.094 99.6307 189.725 98.6026C190.371 97.5579 191.242 96.7454 192.336 96.165C193.447 95.568 194.716 95.2695 196.142 95.2695C197.551 95.2695 198.812 95.568 199.923 96.165C201.034 96.7454 201.904 97.5496 202.535 98.5778C203.165 99.6059 203.48 100.8 203.48 102.16C203.48 103.486 203.165 104.672 202.535 105.717C201.904 106.745 201.034 107.557 199.923 108.154C198.812 108.751 197.551 109.05 196.142 109.05ZM196.142 105.866C196.789 105.866 197.369 105.717 197.883 105.418C198.397 105.12 198.803 104.697 199.102 104.149C199.4 103.586 199.55 102.922 199.55 102.16C199.55 101.38 199.4 100.717 199.102 100.17C198.803 99.6225 198.397 99.1996 197.883 98.9011C197.369 98.6026 196.789 98.4534 196.142 98.4534C195.495 98.4534 194.915 98.6026 194.401 98.9011C193.887 99.1996 193.472 99.6225 193.157 100.17C192.859 100.717 192.709 101.38 192.709 102.16C192.709 102.922 192.859 103.586 193.157 104.149C193.472 104.697 193.887 105.12 194.401 105.418C194.915 105.717 195.495 105.866 196.142 105.866Z" fill="#ABABAB"/>
<path d="M179.455 108.838V93.7898L180.375 94.7101H173.908V91.4268H189.007V94.7101H182.539L183.435 93.7898V108.838H179.455Z" fill="#ABABAB"/>
<path d="M166.152 103.396V100.287H173.192V103.396H166.152Z" fill="#ABABAB"/>
<path d="M160.529 108.838L155.106 100.456L158.365 98.4909L165.105 108.838H160.529ZM149.211 108.838V91.4268H153.216V108.838H149.211ZM152.047 101.824V98.4661H158.116V101.824H152.047ZM158.738 100.58L155.031 100.133L160.678 91.4268H164.931L158.738 100.58Z" fill="#ABABAB"/>
<path d="M134.793 101.584V98.4994H143.399V101.584H134.793ZM137.082 91.1367C138.392 91.1367 139.594 91.3606 140.688 91.8083C141.783 92.2395 142.736 92.8613 143.549 93.6739C144.361 94.4864 144.991 95.4399 145.439 96.5343C145.887 97.6288 146.111 98.831 146.111 100.141C146.111 101.451 145.887 102.653 145.439 103.748C144.991 104.842 144.361 105.796 143.549 106.608C142.736 107.421 141.783 108.051 140.688 108.499C139.594 108.93 138.392 109.145 137.082 109.145C135.539 109.145 134.146 108.88 132.903 108.349C131.676 107.819 130.647 107.048 129.818 106.036L132.38 103.648C132.994 104.345 133.674 104.867 134.42 105.215C135.166 105.547 135.987 105.713 136.883 105.713C137.629 105.713 138.317 105.58 138.947 105.315C139.594 105.033 140.141 104.652 140.589 104.171C141.053 103.673 141.401 103.084 141.633 102.405C141.882 101.725 142.007 100.97 142.007 100.141C142.007 99.3119 141.882 98.5574 141.633 97.8775C141.401 97.1976 141.053 96.6173 140.589 96.1364C140.141 95.6389 139.594 95.2575 138.947 94.9922C138.317 94.7103 137.629 94.5693 136.883 94.5693C135.987 94.5693 135.166 94.7434 134.42 95.0917C133.674 95.4233 132.994 95.9374 132.38 96.6338L129.818 94.2459C130.647 93.2344 131.676 92.4633 132.903 91.9327C134.146 91.402 135.539 91.1367 137.082 91.1367Z" fill="#ABABAB"/>
<path d="M118.437 108.838V93.7898L119.358 94.7101H112.891V91.4268H127.989V94.7101H121.522L122.417 93.7898V108.838H118.437Z" fill="#ABABAB"/>
</svg>
