<svg width="293" height="200" viewBox="0 0 293 200" fill="none" xmlns="http://www.w3.org/2000/svg">
<g clip-path="url(#clip0_5889_38679)">
<path d="M151.374 91.3887V103.211C151.259 104.886 150.777 106.522 148.613 106.522V110.858C155.97 110.858 156.207 108.044 156.207 103.211V95.7246H165.184V110.858H170.186V91.3887H151.374Z" fill="#B5B5B5"/>
<path d="M123.952 97.5981C123.952 91.4651 118.492 91.4651 113.95 91.3887H103.504V110.858H108.505V103.815H113.942C118.484 103.739 123.944 103.731 123.944 97.6057L123.952 97.5981ZM113.766 100.076H108.513V95.1281H113.766C117.422 95.1281 118.913 95.1281 118.913 97.6057C118.913 100.083 117.422 100.083 113.766 100.083V100.076Z" fill="#B5B5B5"/>
<path d="M90.3774 100.55L84.8562 91.3887H78.5703L87.4485 105.52L84.4127 110.858H90.408L101.741 91.3887H95.7456L90.3774 100.55Z" fill="#B5B5B5"/>
<path d="M131.111 91.3887L122.18 110.858H127.609L129.261 107.119H139.577L141.297 110.858H147.063L137.757 91.3887H131.111ZM130.913 103.379L134.316 95.671L137.864 103.379H130.913Z" fill="#B5B5B5"/>
<path d="M241.413 91.3887L235.417 106.882L229.43 91.3887H221.492V110.858H226.493V96.7569L232.19 110.858H238.545L244.334 96.5198V110.858H249.343V91.3887H241.413Z" fill="#B5B5B5"/>
<path d="M202.157 104.855V91.3887H197.156V110.858H202.662L213.016 97.5981V110.858H218.017V91.3887H212.443L202.157 104.855Z" fill="#B5B5B5"/>
<path d="M189.005 91.3887L183.905 97.3916L178.98 91.3887H172.465L180.64 101.238L172.465 110.858H178.078L183.4 104.717L188.44 110.858H194.955L186.704 100.909L194.955 91.3887H189.005Z" fill="#B5B5B5"/>
<path d="M65.5094 106.445C63.46 106.445 61.793 108.112 61.793 110.162C61.793 112.211 63.46 113.878 65.5094 113.878C67.5589 113.878 69.2259 112.211 69.2259 110.162C69.2259 108.112 67.5589 106.445 65.5094 106.445Z" fill="#B5B5B5"/>
<path d="M59.7972 93.2781C60.5827 91.3818 59.6822 89.2078 57.7858 88.4223C55.8895 87.6368 53.7155 88.5373 52.93 90.4336C52.1446 92.3299 53.0451 94.5039 54.9414 95.2894C56.8377 96.0749 59.0117 95.1744 59.7972 93.2781Z" fill="#B5B5B5" fill-opacity="0.8"/>
<path d="M50.6409 102.421C51.4264 100.524 50.5259 98.3503 48.6296 97.5649C46.7333 96.7794 44.5593 97.6799 43.7738 99.5762C42.9883 101.473 43.8888 103.647 45.7851 104.432C47.6814 105.217 49.8555 104.317 50.6409 102.421Z" fill="#B5B5B5" fill-opacity="0.8"/>
<path d="M65.5094 97.292C63.46 97.292 61.793 98.9591 61.793 101.008C61.793 103.058 63.46 104.725 65.5094 104.725C67.5589 104.725 69.2259 103.058 69.2259 101.008C69.2259 98.9591 67.5589 97.292 65.5094 97.292Z" fill="#B5B5B5" fill-opacity="0.8"/>
<path d="M56.361 106.445C54.3116 106.445 52.6445 108.112 52.6445 110.162C52.6445 112.211 54.3116 113.878 56.361 113.878C58.4104 113.878 60.0698 112.211 60.0698 110.162C60.0698 108.112 58.4028 106.445 56.361 106.445Z" fill="#B5B5B5" fill-opacity="0.8"/>
<path d="M50.9363 110.002C51.0587 108.908 51.1963 107.662 52.5346 106.331C53.6893 105.176 54.8975 104.993 56.0752 104.809C57.1305 104.649 58.1246 104.496 58.9887 103.632C59.8528 102.767 60.0058 101.766 60.1663 100.718C60.3422 99.5481 60.5334 98.3322 61.6881 97.1775C63.0263 95.8393 64.2652 95.7016 65.3587 95.5793C66.3299 95.4722 67.2475 95.3728 68.1422 94.4781C68.9605 93.6598 69.3428 92.5281 69.1975 91.3734C69.0981 90.5704 68.7234 89.8134 68.1422 89.2322C67.561 88.651 66.7963 88.2763 66.001 88.1769C64.8463 88.0316 63.7069 88.414 62.8887 89.2322C61.994 90.1269 61.8946 91.0446 61.7875 92.0157C61.6652 93.1093 61.5275 94.3557 60.1893 95.6863C59.0346 96.841 57.444 97.4069 55.8152 97.254C54.584 97.1316 53.4216 96.5734 52.5346 95.6863C51.1963 94.3481 51.0587 93.1093 50.9363 92.0157C50.8293 91.0446 50.7222 90.1269 49.8352 89.2322C49.1316 88.521 48.191 88.1387 47.2046 88.1387C47.044 88.1387 46.8834 88.1463 46.7228 88.1693C45.9275 88.2687 45.1628 88.6434 44.5816 89.2246C44.0005 89.8057 43.6258 90.5704 43.5263 91.3657C43.381 92.5204 43.7634 93.6598 44.5816 94.4704C45.4763 95.3651 46.394 95.4646 47.3652 95.5716C48.4587 95.694 49.6975 95.8316 51.0358 97.1698C51.9228 98.0569 52.481 99.2193 52.6034 100.45C52.764 102.079 52.1905 103.67 51.0358 104.825C49.6975 106.163 48.4587 106.3 47.3652 106.423C46.394 106.53 45.4763 106.629 44.5816 107.524C43.7634 108.35 43.381 109.482 43.5263 110.644C43.6258 111.447 44.0005 112.204 44.5816 112.785C45.1628 113.366 45.9199 113.741 46.7228 113.84C47.8852 113.986 49.0169 113.603 49.8275 112.785C50.7222 111.89 50.8216 110.973 50.9287 110.002H50.9363Z" fill="#B5B5B5"/>
</g>
<defs>
<clipPath id="clip0_5889_38679">
<rect width="205.706" height="26" fill="white" transform="translate(43.5 87)"/>
</clipPath>
</defs>
</svg>
