<svg width="293" height="200" viewBox="0 0 293 200" fill="none" xmlns="http://www.w3.org/2000/svg">
<path fill-rule="evenodd" clip-rule="evenodd" d="M116.421 69.9206C111.5 74.8412 111.5 82.7608 111.5 98.6V101.4C111.5 117.239 111.5 125.159 116.421 130.079C121.341 135 129.261 135 145.1 135H147.9C163.739 135 171.659 135 176.579 130.079C181.5 125.159 181.5 117.239 181.5 101.4V98.6C181.5 82.7608 181.5 74.8412 176.579 69.9206C171.659 65 163.739 65 147.9 65H145.1C129.261 65 121.341 65 116.421 69.9206ZM123.312 86.2919C123.691 104.492 132.791 115.429 148.745 115.429H149.649V105.017C155.512 105.6 159.945 109.888 161.724 115.429H170.008C167.733 107.146 161.753 102.567 158.02 100.817C161.753 98.6585 167.003 93.4085 168.257 86.2919H160.732C159.099 92.0669 154.258 97.3168 149.649 97.8127V86.2919H142.124V106.475C137.457 105.308 131.566 99.6502 131.303 86.2919H123.312Z" fill="#B5B5B5"/>
</svg>
